<svg xmlns="http://www.w3.org/2000/svg" fill="none" viewBox="1.32 0 160.3 168">
  <path opacity=".3" d="M11.6756 107.927C-6.869 77.6164 74.9857-39.427 133.791 13.6027c21.868 19.7208 37.803 43.5211 20.477 66.6809-26.778 35.8024-35.43 46.0414-37.006 57.8544-1.575 11.814.788 27.565-23.6266 29.141-24.4147 1.575-39.8721 1.128-55.1299-7.089-30.71-16.544-16.5337-35.445-26.8299-52.263Z" fill="#D3E6F2"/>
  <path d="M113.495 136.358c-6.058-1.143-11.939-4.99-13.8196.227-.2495 2.428.2133 5.038 9.1956 7.482 8.983 2.444 14.111 2.576 14.863-1.313.753-3.888-4.182-5.252-10.239-6.396Z" fill="#fff" stroke="#153150" stroke-width="2.6843" stroke-linecap="round" stroke-linejoin="round"/>
  <path d="M102.599 135.837c-.114-7.363-2.035-17.245-2.9808-21.267l7.7658.559c.389 7.42-.41 17.4-.859 21.462-.587 2.087-3.895 1.207-3.926-.754Z" fill="#FFD168" stroke="#153150" stroke-width="2.6843" stroke-linecap="round" stroke-linejoin="round"/>
  <path d="M79.7344 142.073c-5.3019 2.07-14.3316 4.437-17.1492-2.164-1.0669-4.07 4.0659-4.192 10.5582-5.35 6.4923-1.159 13.6142-3.026 15.2441.081 1.6299 3.107-3.3511 5.364-8.6531 7.433Z" fill="#fff" stroke="#153150" stroke-width="2.6843" stroke-linecap="round" stroke-linejoin="round"/>
  <path d="M81.1593 134.47c-.1143-7.363-2.0349-17.245-2.9809-21.267l7.7658.559c.3888 7.42-.4104 17.399-.8586 21.462-.3649 1.529-3.8914 1.485-3.9263-.754Z" fill="#FFD168" stroke="#153150" stroke-width="2.6843" stroke-linecap="round" stroke-linejoin="round"/>
  <circle cx="138.115" cy="62.7249" r="11.6831" transform="rotate(-14.689 138.115 62.7249)" fill="#0D88CA" stroke="#153150" stroke-width="2.6843" stroke-linecap="round" stroke-linejoin="round"/>
  <path d="M4.8948 37.0294c-1.0714 1.2058-2.9604 4.9385-1.9452 10.2224m17.3902-16.5837c5.7814 2.647 6.8865 13.9198 6.7941 15.3315m2.0167-13.4786c2.1109 2.4066 2.5434 7.3499 2.4957 9.5207" stroke="#153150" stroke-width="2.6843" stroke-linecap="round" stroke-linejoin="round"/>
  <path d="M38.0577 35.8604c-1.8453 22.3166-.1847 54.0586 1.5007 73.5976.4027 4.669 4.1194 8.334 8.7878 8.738 33.9055 2.935 55.8588 2.931 88.8218.085 5.113-.441 9-4.785 8.92-9.916-.418-26.9426-.734-45.2886-1.25-72.0608-.103-5.3193-4.426-9.5948-9.746-9.6411-32.715-.2851-54.5327-.1073-87.8322.7505-4.7869.1233-8.8075 3.6746-9.2021 8.4468Z" fill="#0DBAEC" stroke="#153150" stroke-width="2.6843" stroke-linecap="round" stroke-linejoin="round"/>
  <path d="M9.56 45.1901c-.3276 9.336 5.5504 29.995 27.5416 36.2552l.0293-6.9452c-15.6845-5.1385-15.7181-17.617-16.9366-29.3226-1.2186-11.7056-10.3066-9.3233-10.6343.0126Z" fill="#fff" stroke="#153150" stroke-width="2.6843" stroke-linecap="round" stroke-linejoin="round"/>
  <path d="M101.172 82.2895c.436-.0042.82.3066.87.7391.758 6.5606-5.4305 10.5996-12.287 10.7745-6.7615.1725-11.5748-4.4673-12.3559-10.3571-.0668-.504.3356-.932.845-.9369l22.9279-.2196Z" fill="#153150" stroke="#153150" stroke-width="2.6843" stroke-linecap="round" stroke-linejoin="round"/>
  <path d="m145.236 58.9783-.148-5.8687c-.137-5.4002-4.6-9.6812-10.001-9.5923L47.4433 44.959c-5.3327.0878-9.6034-4.3972-9.255-9.7192" stroke="#153150" stroke-width="2.6843" stroke-linecap="round" stroke-linejoin="round"/>
  <path d="m45.1249 44.0585.0621-4.2591c.0338-2.319 1.8416-4.2288 4.1549-4.3938 32.6943-2.3333 52.2701-2.9627 84.2831-1.4997 2.343.1071 4.207 2.0146 4.26 4.3596l.124 5.4943" stroke="#153150" stroke-width="2.6843" stroke-linecap="round" stroke-linejoin="round"/>
  <path d="M80.258 72.735c.0648-2.3455-1.8093-4.3073-4.1858-4.3822-2.3764-.0748-4.3553 1.766-4.4201 4.1115-.0646 2.3454 1.8093 4.3073 4.1857 4.3822 2.3764.0745 4.3554-1.7661 4.4202-4.1115Z" fill="#1E324D"/>
  <path d="M76.2396 71.5569c.0191-.6911-.5332-1.2693-1.2331-1.2914-.7002-.0221-1.2831.5203-1.3021 1.2116-.019.6911.5332 1.2695 1.2332 1.2914.7002.0221 1.283-.5202 1.302-1.2116Z" fill="#fff"/>
  <path d="M108.408 73.6855c.065-2.3473-1.811-4.3107-4.189-4.3856-2.378-.0747-4.3586 1.7674-4.4232 4.1146-.0649 2.3473 1.8102 4.3107 4.1892 4.3856 2.378.0746 4.359-1.7674 4.423-4.1146Z" fill="#1E324D"/>
  <path d="M104.603 72.3046c.019-.6913-.533-1.2695-1.234-1.2916-.7-.0219-1.283.5205-1.302 1.2116-.018.6912.534 1.2694 1.234 1.2915.7.0221 1.283-.5204 1.302-1.2115Z" fill="#fff"/>
  <path d="M95.8635 88.8799c-.2946 1.1982-.6296 2.1739-1.1724 3.4148-1.9189 1.0366-3.9273 1.4044-5.9105 1.3308-1.8763-.0696-3.5786-.8287-5.313-1.4958 1.2066-1.8142 1.6905-3.0152 2.3201-5.1891.7971-2.6617 3.6138-4.0642 6.2568-3.6007 2.8912.4207 4.6161 2.8782 3.819 5.54Z" fill="#0DBAEC"/>
  <path d="M88.7806 93.6255c1.9832.0736 3.9916-.2942 5.9105-1.3308.5428-1.2409.8778-2.2166 1.1724-3.4148.7971-2.6618-.9278-5.1193-3.819-5.54-2.643-.4635-5.4597.939-6.2568 3.6007-.6296 2.1739-1.1135 3.3749-2.3201 5.1891 1.7344.6671 3.4367 1.4262 5.313 1.4958Zm0 0c.5492-.9676 1.6694-3.358 1.7572-5.1794" stroke="#153150" stroke-width="2.6843" stroke-linecap="round" stroke-linejoin="round"/>
  <path opacity=".15" d="M149.347 88.8811c.203 11.1989-36.725 17.8979-37.156-2.3749-.446-22.6022 29.881-13.2647 36.686-18.103 0 0 .452 14.7573.47 20.4779Z" fill="#153150"/>
  <path d="m140.718 72.326-11.397.6145c-5.752.3101-10.282 5.0218-10.366 10.7822-.091 6.1892 4.96 11.2245 11.149 11.1157l10.484-.1843c5.455-.0959 9.792-4.6114 9.667-10.0663l-.224-22.1173c-.002 5.2287-4.092 9.574-9.313 9.8555Z" fill="#0DBAEC"/>
  <path d="m150.031 62.4705.224 22.1173c.125 5.4549-4.212 9.9704-9.667 10.0663l-10.484.1843c-6.189.1088-11.24-4.9265-11.149-11.1157.084-5.7604 4.614-10.4721 10.366-10.7822l11.397-.6145c5.221-.2815 9.311-4.6268 9.313-9.8555Zm0 0c.001-3.5647-1.895-6.7066-4.739-8.4442" stroke="#153150" stroke-width="2.6843" stroke-linecap="round" stroke-linejoin="round"/>
  <circle cx="130.69" cy="83.7607" r="5.5392" transform="rotate(-14.689 130.69 83.7607)" fill="#FFD168" stroke="#153150" stroke-width="2.6843" stroke-linecap="round" stroke-linejoin="round"/>
  <path d="M68.8857 67.755c1.4044-2.6272 4.2855-3.4511 6.1218-3.2985M106.11 65.7461c2.861-.3798 5.122 1.8949 5.576 3.6259M134.416 48.6108c3.689-.042 4.689 2.0084 5.369 4.605M134.946 113.225c3.575-.475 5.285-2.773 5.357-6.029" stroke="#153150" stroke-width="2.6843" stroke-linecap="round" stroke-linejoin="round"/>
  <path opacity=".2" d="M38.2008 38.5333c.5343-2.8077 5.8686-2.65 8.469-2.2201-1.7393.4559-1.8508 3.214-1.6891 4.536l92.6923-.0234c-.017-1.4751 1.195-2.7414 2.579-2.2319 2.63.9677 4.534 3.4655 4.602 6.4378l.224 9.672c-.219-8.4931-5.508-10.7228-8.125-10.776-24.213.3132-74.5522 1.0283-82.2079 1.3838-9.5697.4443-17.2122-3.2686-16.5443-6.7782Z" fill="#153150"/>
</svg>
