<svg xmlns="http://www.w3.org/2000/svg" fill="none" viewBox="0 .74 151.91 116.26">
  <path opacity=".2" d="M32.3112 116.759C1.116 119.546-8.606 97.6689 8.0482 78.6637c11.4975-13.008 36.014-38.0948 60.1077-57.6067 12.3428-9.9672 22.9948-12.0789 44.2141-4.4768 35.676 12.7546 42.016 20.9479 38.804 40.6288-3.044 18.5828-11.075 27.0296-25.447 33.7025-27.8131 12.9235-58.9237 22.7215-93.4158 25.8475Z" fill="#7BBE34"/>
  <path d="M95.2149 103.788c-5.7309-.787-11.4227-4.1172-12.9404.861-.12 2.287.4361 4.711 8.9689 6.58 8.5328 1.87 13.3456 1.753 13.8676-1.926.523-3.68-4.165-4.727-9.8961-5.515Z" fill="#fff" stroke="#153150" stroke-width="2.5188" stroke-linecap="round" stroke-linejoin="round"/>
  <path d="M89.2939 103.624c-.1432-6.9075 1.3218-16.2403 2.0722-20.0432l-7.2633.7874c-.1123 6.9715.9764 16.3028 1.5348 20.0968.6221 1.937 3.6944.999 3.6563-.841Z" fill="#FFD168" stroke="#153150" stroke-width="2.5188" stroke-linecap="round" stroke-linejoin="round"/>
  <path d="M65.9908 110.588c-4.872 2.188-13.2234 4.829-16.1735-1.225-1.1907-3.764 3.614-4.119 9.6442-5.509 6.0301-1.39 12.6172-3.473 14.2903-.638 1.6732 2.835-2.8891 5.184-7.761 7.372Z" fill="#fff" stroke="#153150" stroke-width="2.5188" stroke-linecap="round" stroke-linejoin="round"/>
  <path d="M66.8107 103.109c.3051-6.9027-.9407-16.2673-1.6017-20.0868l7.2429.9576c-.0512 6.9722-1.3585 16.2752-2.0057 20.0552-.4274 1.412-3.7282 1.174-3.6355-.926Z" fill="#FFD168" stroke="#153150" stroke-width="2.5188" stroke-linecap="round" stroke-linejoin="round"/>
  <path d="M29.0327 9.2976c0-3.9343 2.9507-6.6884 7.0818-6.885 14.1636-.9837 64.7195 0 84.7855.7868 3.737.1967 7.081 2.9507 7.081 7.4752v13.967-.1968 14.1555c0 5.1078-4.146 9.2457-9.254 9.2357l-81.221-.1599c-5.1863-.0102-9.3475-4.2879-9.2145-9.4725l.7412-28.906Z" fill="#0DBAEC" stroke="#153150" stroke-width="2.5188" stroke-linecap="round" stroke-linejoin="round"/>
  <path opacity=".2" d="M35.5243 12.6414s59.9988 0 85.9657-.1968c3.344.1968 6.098 1.3771 6.098 8.4589 0 0-.393-3.9344-10.033-3.7376-9.835.1967-81.2438-.7869-81.2438-.7869-9.2457-1.7705-8.4588-9.049.7869-6.8851-1.9672 2.3606-1.5738 3.1475-1.5738 3.1475Z" fill="#153150"/>
  <path d="M127.784 47.0674c4.328 1.1803 5.312-4.9179 5.312-11.9997 0-3.7377-2.164-6.8851-5.312-8.6556v20.6553Z" fill="#0D88CA" stroke="#153150" stroke-width="2.5188" stroke-linecap="round" stroke-linejoin="round"/>
  <path d="M120.899 87.9846c-30.2941 2.1639-54.8837 1.5737-84.7847-.5902-4.3278-.3934-6.6884-3.7376-6.8851-7.0818-1.9672-21.6389-2.5574-45.8351-.1967-71.4083 0 4.7212 3.5409 7.2785 7.0818 7.2785 28.9174 1.3771 56.8512 1.5738 84.7847.9836 1.968 0 3.738.7869 4.918 2.1639 1.171 1.366 1.955 3.1191 1.967 4.8754.001.0283 0 .0291.001.0574.008.9057.389 42.826-.001 56.8364 0 3.7376-2.754 6.6884-6.885 6.8851Z" fill="#0DBAEC" stroke="#153150" stroke-width="2.5188" stroke-linecap="round" stroke-linejoin="round"/>
  <path d="M70.917 58.7895h11.2422m0-3.5502v6.8045" stroke="#153150" stroke-width="2.5188" stroke-linecap="round" stroke-linejoin="round"/>
  <path d="M96.1131 76.0805h-3.3442c-1.1803 0-2.1639-.9836-2.1639-2.1639s.9836-2.1639 2.1639-2.1639h3.3442c1.1803 0 2.1638.9836 2.1638 2.1639s-.7868 2.1639-2.1638 2.1639Z" fill="#153150"/>
  <path d="M94.4558 73.9166h14.6892c1.855 0 3.359-1.5036 3.359-3.3584v-3.2096m-16.3909 8.7319h-3.3442c-1.1803 0-2.1639-.9836-2.1639-2.1639s.9836-2.1639 2.1639-2.1639h3.3442c1.1803 0 2.1638.9836 2.1638 2.1639s-.7868 2.1639-2.1638 2.1639ZM117.169 22.7656c3.462-.0575 4.41 1.8615 5.062 4.2947M117.984 83.3936c3.353-.463 4.946-2.628 4.997-5.6838" stroke="#153150" stroke-width="2.5188" stroke-linecap="round" stroke-linejoin="round"/>
  <path opacity=".15" d="M130.342 61.2305c0 10.6228-34.6223 16.1308-34.6223-2.754 0-21.4422 28.1303-11.9998 34.6223-16.5242v19.2782Z" fill="#153150"/>
  <path d="m123.457 66.149-10.23.3934c-13.3764.5902-13.3764-20.4586 0-20.852l10.23-.3934c5.311-.1967 9.639-4.7212 9.639-10.2293v-.5902 21.4422c0 5.3114-4.328 10.0326-9.639 10.2293Z" fill="#0DBAEC" stroke="#153150" stroke-width="2.5188" stroke-linecap="round" stroke-linejoin="round"/>
  <path stroke="#153150" stroke-width="2.5188" stroke-linecap="round" stroke-linejoin="round" d="M128.204 50.3825v5.9554M36.2598 15.7693v-2.2988c0-2.6676 2.089-4.8746 4.7526-5.0216 28.4943-1.573 46.2388-1.5744 74.2666-.004 2.661.149 4.747 2.3552 4.747 5.0209v3.5476"/>
  <circle cx="114.502" cy="56.1461" r="4.0865" fill="#FFD168" stroke="#153150" stroke-width="2.5188" stroke-linecap="round" stroke-linejoin="round"/>
  <path d="M27.2621 44.1162C22.9343 47.067 19 52.1816 19 60.0503c0 15.9341 21.8356 30.6879 28.3273 19.475 2.5573-4.5245-2.1639-10.8194-6.4917-11.0162-6.0982-.3934-8.6556 4.3278-8.6556 4.3278-9.4424-5.3114-11.6063-18.098-4.7212-24.3929l-.1967-4.3278Z" fill="#fff" stroke="#153150" stroke-width="2.5188" stroke-linecap="round" stroke-linejoin="round"/>
  <path d="M67.5891 50.4111H57.3598c-2.3606 0-4.3278-1.9672-4.3278-4.3278v-5.9015c0-2.3606 1.9672-4.3278 4.3278-4.3278h10.2293c2.3606 0 4.3277 1.9672 4.3277 4.3278v5.9015c0 2.3606-1.7704 4.3278-4.3277 4.3278Z" fill="#153150" stroke="#153150" stroke-width="2.5188" stroke-linecap="round" stroke-linejoin="round"/>
  <path d="M70.917 42.021h10.5026" stroke="#153150" stroke-width="2.5188" stroke-linecap="round" stroke-linejoin="round"/>
  <path d="M95.7197 50.4111H85.4904c-2.3606 0-4.3278-1.9672-4.3278-4.3278v-5.9015c0-2.3606 1.9672-4.3278 4.3278-4.3278h10.2293c2.3606 0 4.3273 1.9672 4.3273 4.3278v5.9015c0 2.3606-1.9667 4.3278-4.3273 4.3278Z" fill="#153150" stroke="#153150" stroke-width="2.5188" stroke-linecap="round" stroke-linejoin="round"/>
  <path d="M85.456 39.123v2.2717m0 3.6401.0001.1409M57.4983 39.123v2.2717m0 3.6401v.1409" stroke="#fff" stroke-width="2.5188" stroke-linecap="round" stroke-linejoin="round"/>
</svg>
