<svg xmlns="http://www.w3.org/2000/svg" fill="none" viewBox="0 0 168.03 150">
  <path d="M33.7677 109.481C1.1664 112.394-8.994 89.5307 8.4111 69.6689 20.4268 56.0745 46.0484 29.8568 71.2283 9.4652 84.1275-.9512 95.2597-3.158 117.436 4.7867c37.284 13.3295 43.91 21.8922 40.553 42.4603-3.181 19.4205-11.574 28.248-26.594 35.2217-29.067 13.5061-61.5803 23.7463-97.6273 27.0123Z" fill="#C6F0FF"/>
  <path opacity=".1" d="M47.1086 125.46C7.4392 133.404 19.8966 150 31.3822 150c10.2487 0 20.8507-10.858 45.4122-10.858 9.8952 0 15.7264 1.942 25.0036 1.942 7.951 0 13.606-7.15 13.606-10.769 0-8.563-14.755-14.212-28.0075-14.212-14.8429 0-19.5255 4.502-25.5333 6.267-4.771 1.412-9.807 2.03-14.7546 3.09Z" fill="#163050"/>
  <path d="M2.5791 41.07c9.2768 17.5667 14.8429 45.4616 14.2244 69.472-.265 9.534 4.771 13.33 19.0838 10.24 14.3128-3.089 62.4638-13.506 75.2747-13.153-1.944-57.6432-2.651-74.3272-2.651-79.4472 0-5.1199-4.417-9.9751-18.2881-7.4151-13.8711 2.56-29.3324 2.3834-68.03 15.4481-10.5137 3.4428-14.6662 4.149-19.6138 4.8552Z" fill="#02BAEC"/>
  <path d="M50.6428 127.578c-25.1799 4.678-10.1603 14.565 1.502 6.002 3.534-2.56 7.3331-7.679-1.502-6.002Z" fill="#fff"/>
  <path d="M2.05 39.5679C-1.6607 30.299 71.14 15.6454 74.0557 15.0275c3.534-.7945 5.4777.2648 6.7146 2.3834 4.1525-1.2359 7.3331 3.8841 7.3331 3.8841C32.2658 27.7391 4.5238 45.5706 2.05 39.5679Z" fill="#009BE2"/>
  <path d="M76.1759 123.605c1.5019-2.207 22.9712 1.148 18.2002 5.385-4.7709 4.325-21.2925-.795-18.2002-5.385Z" fill="#fff"/>
  <path d="M99.6771 31.7998c-14.5779 18.9792-20.409 79.8892-20.409 79.8892l18.0235-2.56 2.3855-77.3292Z" fill="#009ADB"/>
  <path d="M48.522 118.31c.1767 4.413.5301 8.386.6184 9.798.1767 1.413 3.6224 6.003 4.4176-.088.7951-6.091 1.5019-11.741 1.5019-11.741l-6.5379 2.031Z" fill="#FFD167"/>
  <path d="m103.034 29.2393 63.524 2.4717c-10.072 35.9279-10.248 49.2575-9.011 96.749-28.626-5.296-69.0022-9.004-69.0022-9.004-2.9156-41.2241 3.6224-80.8596 14.4892-90.2167Z" fill="#fff"/>
  <path opacity=".1" d="M105.95 108.423c-6.6262 5.12-11.8389 6.356-17.1399 7.857-.5301-12.359 0-19.4206 0-19.4206l10.6904.7945 6.4495 10.7691Z" fill="#163050"/>
  <path d="M58.2405 67.7281c-1.0602 15.4481-23.5013 12.6233-15.108-2.0303 2.0321-2.6483 4.6826-3.8841 7.1564-4.149-3.1806.8828-5.7428 3.7959-5.7428 6.9738 0 9.6219 16.6983 4.6785 12.8109-4.0607.6184.971.9718 2.0303.8835 3.2662Z" fill="#009ADB"/>
  <path d="M20.4265 90.5023c5.036 9.3571 22.7061 28.0717 26.9469 26.9237 15.9031-4.149 42.2316-44.4022 42.2316-44.4022l-1.4136-5.9144C77.5893 80.2624 65.662 91.1202 51.8793 99.065L26.9644 82.1161l-6.5379 8.3862Z" fill="#009ADB"/>
  <path d="M68.3125 60.3123c1.1485-1.5007 2.3854-2.4717 3.799-3.0896-2.032 1.3241-3.3573 3.531-3.3573 5.8261 0 7.9448 12.7225 6.4441 13.2526-1.5007 1.9437 13.5944-21.9993 13.6827-13.6943-1.2358Z" fill="#009ADB"/>
  <path d="M76.9712 73.4652s17.4934 28.5128 19.1721 31.3378c1.6787 2.825 13.4297-1.942 11.4857-5.9146-1.944-3.9724-15.4615-28.1598-17.5819-32.0439-4.5942-8.5626-16.6983.618-13.0759 6.6207ZM74.3203 112.924s3.269 9.799 3.7991 11.3c.5301 1.5 4.1525 1.853 4.0641-1.148-.0883-3.001-1.2369-11.388-1.2369-11.388l-6.6263 1.236Z" fill="#FFD167"/>
  <path d="M89.6934 65.8744c3.0923 6.0909-10.072 12.7116-13.1642 6.6206-3.0923-6.091 10.072-12.7116 13.1642-6.6206ZM18.8365 85.2942c.1767-2.8248 3.2689-7.7682 8.2166-3.0897 4.9476 4.5903 19.7022 18.3615 22.8828 20.9215 16.4332-7.945 31.1877-15.2719 31.1877-15.2719-.7951-3.0896-.0883-5.3847.8835-6.3558 2.8272 3.7959 4.9477 4.5021 10.7788-2.4717 1.2369-1.6772 4.7709-.8827 4.9476 2.2069.1767 3.0896-.4418 6.0027-2.5622 7.4151-2.1204 1.4124-5.4777 2.7365-9.2768 2.1186-6.5379 5.2082-18.3769 13.3298-26.5052 17.0368-8.1282 3.708-9.6301 5.65-18.0234-.353-8.3933-6.003-23.7663-16.8603-22.5294-22.1568Z" fill="#fff"/>
  <path d="M85.0108 67.3733c1.0602 1.7655-3.269 4.2372-4.2409 2.4717-1.0602-1.7655 3.269-4.1489 4.2409-2.4717ZM99.3237 106.126l6.3613 1.766c3.004-13.771 2.12-2.295-6.3613-1.766Z" fill="#C8B1FF"/>
  <path d="M52.8512 60.0482c0-6.3558-10.337-4.8552-10.337 1.5006s10.337 4.9435 10.337-1.5006Z" fill="#163050"/>
  <path opacity=".5" d="M57.799 66.5801c0-8.2096-13.2526-6.2675-13.2526 1.9421 0 8.2095 13.2526 6.2675 13.2526-1.9421ZM82.0953 61.1953c0-8.2095-13.2526-6.2675-13.2526 1.9421-.0883 8.1213 13.2526 6.1792 13.2526-1.9421Z" fill="#fff"/>
  <path d="M77.8544 53.9564c0-6.3558-10.3371-4.8552-10.3371 1.5006 0 6.4441 10.3371 4.9435 10.3371-1.5006Z" fill="#163050"/>
  <path opacity=".1" d="M159.314 65.5205c-9.63 7.4151-25.975 21.804-20.409 40.3415 3.799 12.624 17.582.442 17.582.442s.795-28.1602 2.827-40.7835Z" fill="#163050"/>
  <path d="M161.699 68.3457c-4.241 3.0014-4.506 2.56-8.393 3.2662-3.799.7062-11.751 8.4744-10.337 21.8039 1.413 13.3292 12.104 9.8872 14.048 8.6512 4.594-2.825 5.477-7.0622 4.682-33.7213Z" fill="#02BAEC"/>
  <path d="M159.226 86.8834c0-10.0634-10.691-7.5917-10.691 2.4717.089 10.1516 10.691 7.6799 10.691-2.4717Z" fill="#FFD167"/>
  <path d="M159.579 63.7559c-.884 5.8261-1.326 7.1502-1.326 7.1502 4.86-2.5599 3.976-6.0909 1.326-7.1502Z" fill="#009BE2"/>
  <path d="M83.0669 74.9665c3.1806 5.5613 3.269 8.4744 9.7186 4.0607-2.9156 4.1489-7.1564 6.9737-9.8953 4.2372-2.6505-4.0607-5.9195-9.7986-5.9195-9.7986 2.8272 1.9421 6.0962 1.5007 6.0962 1.5007ZM88.1917 90.9438c6.9796 12.6232 7.333 16.2422 13.3413 14.6532-10.6025-19.6849-4.5947-6.1788-3.7995-20.1263-3.0923 4.9434-5.6544 5.5613-9.5418 5.4731Z" fill="#FFAF66"/>
  <path d="M48.9637 128.373c-2.9156 1.148-7.3331 2.383-9.9836 3.354-4.8593 1.854-.4418 8.033 8.4816 4.326 10.2487-4.237 10.2487-8.033 6.538-8.563M82.2721 122.635c2.7388.795 6.7146 1.412 10.0719 2.472 5.6545 1.765 1.767 8.033-8.0399 5.031-2.9156-.882-4.9476-1.235-6.9797-3.001-1.3252-1.148-2.1204-3.796.1767-4.679" stroke="#163050" stroke-width="2.0592" stroke-miterlimit="10" stroke-linecap="round" stroke-linejoin="round"/>
  <path d="M48.6987 118.397c0 .883.3534 9.357.5301 10.24.3534 2.737 4.5943 2.472 4.5943-.353.7068-7.856.6184-9.181 1.8553-11.741M74.6738 113.012l3.5341 11.211c.3534 2.03 4.3291 1.324 3.9757-.706L80.77 112.129M89.8701 66.1396c-2.9156-6.2676-16.2565 0-13.2526 6.2675 2.9156 6.1792 16.1682-.0883 13.2526-6.2675ZM95.8778 77.7924l-6.0079-11.6523M88.8101 92.0048l6.4495 11.2992c3.4457 5.738 14.5774-.441 11.7504-5.5613L98.0869 81.147" stroke="#163050" stroke-width="2.0592" stroke-miterlimit="10" stroke-linecap="round" stroke-linejoin="round"/>
  <path d="M107.452 99.6851c-1.326 10.0629 0 9.1809-9.8956 5.6499M85.3642 67.8173c.8835 1.7655-3.7991 3.9724-4.6826 2.2069-.7952-1.8538 3.8874-3.9724 4.6826-2.2069ZM87.131 110.807c-35.1636 4.855-70.4154 18.714-70.5921 3.531-.1767-19.5091-1.8554-48.4634-14.4012-74.5045M108.512 28.3585c-.176-5.0316-4.506-8.9157-9.5415-8.4744C39.4222 24.651 8.7645 44.0715 2.3149 39.9226c-3.799-2.4717 16.6099-15.3599 72.9776-24.9819 2.2087-.3531 4.2408.4414 5.5661 2.0304" stroke="#163050" stroke-width="2.0592" stroke-miterlimit="10" stroke-linecap="round" stroke-linejoin="round"/>
  <path d="M158.783 70.0238C161.876 46.2778 167 31.6241 167 31.6241l-64.408-2.8248c-6.4492 9.0924-10.5133 21.186-12.5454 38.2231M88.4564 92.4448c-.1767 8.1212-.0883 17.0372.1767 26.8352l68.8249 9.269c-.795-9.18-1.06-17.92-.972-26.217M44.3696 81.6753c5.8312 5.8261 19.9673 4.8551 19.9673 4.8551M42.7793 83.6174s.9719-2.8248 3.0039-3.9724M54.0879 89.8853c2.0321.5296 3.269.5296 3.269.5296M52.3213 59.5183c.4417 6.0909-9.1001 8.4744-9.8069 2.3834-.6185-6.2676 9.3651-8.651 9.8069-2.3834ZM77.4126 53.6037c.4417 6.091-9.1001 8.4744-9.8069 2.3835-.6184-6.1793 9.3651-8.5627 9.8069-2.3835Z" stroke="#163050" stroke-width="2.0592" stroke-miterlimit="10" stroke-linecap="round" stroke-linejoin="round"/>
  <path d="M57.5342 66.2266c.6184 7.9448-11.839 11.0344-12.7225 3.1779-.7952-8.1213 12.104-11.2992 12.7225-3.1779ZM75.9993 68.1688c-8.7467 2.4717-9.8953-10.3282-1.0602-12.0937 4.9476-.971 8.2166 3.531 5.9195 8.1213" stroke="#163050" stroke-width="2.0592" stroke-miterlimit="10" stroke-linecap="round" stroke-linejoin="round"/>
  <path d="M57.5339 66.2277c1.9437-4.3255 9.4535-6.4441 11.3089-2.3835" stroke="#163050" stroke-width="2.0592" stroke-miterlimit="10" stroke-linecap="round" stroke-linejoin="round"/>
  <path d="m75.2041 64.9917 2.6505-2.9131M71.8467 64.5487l2.7388-3.0013M51.3496 70.7294l3.1806-3.4428" stroke="#fff" stroke-width="2.0592" stroke-miterlimit="10" stroke-linecap="round" stroke-linejoin="round"/>
  <path d="M19.1897 83.7062c.5301-4.0606 6.0962-4.8551 10.5137.9711 4.4175 5.8261 19.7022 18.1847 19.7022 18.1847M47.1084 104.45c5.036-2.825 34.1033-16.5955 34.1033-16.5955-1.3253-1.5889-.7952-5.2082.8835-6.1792" stroke="#163050" stroke-width="2.0592" stroke-miterlimit="10" stroke-linecap="round" stroke-linejoin="round"/>
  <path d="m76.6176 72.4067 6.9797 11.211c1.767 2.2951 6.4496-.1766 9.5418-4.5903 2.9156-4.0607 7.3329 3.4427 3.4457 8.3861-3.9757 4.8551-10.602 3.4427-10.602 3.4427-4.5943 4.149-20.0556 14.2128-31.8062 19.5968-3.3574 1.589-7.3331 1.236-10.4254-.971-6.1845-4.413-17.14-12.6231-23.678-19.5085M133.427 66.9341c5.743.5296 9.542.8827 9.542.8827M100.031 65.1694c3.975 0 8.128.0883 12.192.2649M99.2351 70.1108c15.9919.0883 35.1639 1.9421 35.1639 1.9421M103.564 77.7046c6.627.2648 14.755 1.0593 14.755 1.0593M111.163 87.9429c11.309.2648 27.123 2.7365 27.123 2.7365M160.109 62.8735c1.59 2.2069 3.357 6.8855-4.683 8.4744-15.373 3.0897-16.963 30.7201-4.682 31.8671 10.072.883 10.602-7.6797 10.779-10.0631 1.148-14.4771.353-25.0701-.089-26.9239" stroke="#163050" stroke-width="2.0592" stroke-miterlimit="10" stroke-linecap="round" stroke-linejoin="round"/>
  <path d="M159.048 87.2368c0-9.7985-10.513-8.2978-10.513 1.589 0 9.8868 10.513 8.2978 10.513-1.589ZM87.9264 20.8543c-.8835-2.3834-3.3573-3.8841-5.9195-3.531-29.0673 3.6193-57.6046 12.9764-71.3873 18.626-1.1485.4414-1.8553 1.6773-1.1485 3.531" stroke="#163050" stroke-width="2.0592" stroke-miterlimit="10" stroke-linecap="round" stroke-linejoin="round"/>
  <path d="M12.6519 53.5146c2.7388 8.9158 5.0359 18.9792 5.0359 18.9792M9.648 45.041c.353.8828.7062 1.8538 1.1475 2.8248" stroke="#fff" stroke-width="2.0592" stroke-miterlimit="10" stroke-linecap="round" stroke-linejoin="round"/>
  <path d="M51.2614 58.987c0 3.4428-5.6545 3.4428-5.6545 0 0-3.3544 5.6545-3.3544 5.6545 0Z" fill="#fff"/>
  <path d="M51.4381 58.4582c.265 3.7075-5.4777 5.1199-5.8312 1.4124-.4417-3.7076 5.5661-5.12 5.8312-1.4124Z" stroke="#163050" stroke-width="2.0592" stroke-miterlimit="10" stroke-linecap="round" stroke-linejoin="round"/>
  <path d="M76.4413 52.8083c0 3.4427-5.6544 3.4427-5.6544 0 0-3.3544 5.6544-3.3544 5.6544 0Z" fill="#fff"/>
  <path d="M76.7063 52.2785c.265 3.7076-5.4778 5.12-5.8312 1.4124-.4418-3.7075 5.4778-5.12 5.8312-1.4124Z" stroke="#163050" stroke-width="2.0592" stroke-miterlimit="10" stroke-linecap="round" stroke-linejoin="round"/>
  <path d="M128.656 35.6821c-16.61-1.7655-22.264 24.0991-5.654 26.0411 16.786 1.9421 22.441-24.2756 5.654-26.0411Z" fill="#C8B1FF"/>
  <path d="M129.452 50.8657H129.01s-.088 0-.088.0883c0 0-.089 0-.089.0883l-.088.0882-2.121 1.589c-.088 0-.088.0883-.176.0883-.089 0-.089.0882-.177.0882s-.088.0883-.177.0883c-.088 0-.088.0883-.176.0883-.089 0-.089 0-.177.0883H125.034c-.088 0-.088 0-.177-.0883-.088 0-.088 0-.176-.0883-.089 0-.089-.0883-.177-.0883s-.088-.0882-.177-.0882c-.088 0-.088-.0883-.176-.0883-.089 0-.089-.0883-.089-.1766 0-.0882-.088-.0882-.088-.1765l-1.325-2.0303s0-.0883-.089-.0883l-.088-.0883-.088-.0883-.089-.0882s-.088 0-.088-.0883H121.5s-.088 0-.088.0883c0 .0882-.089 0-.089.0882l-.088.0883c-.088 0-.088.0883-.177.0883l-.176.1765c-.089.0883-.089.0883-.177.1766 0 .0883-.088.0883-.088.1765 0 .0883-.089.0883-.089.1766s-.088.0883-.088.1765c0 .0883-.088.0883-.088.1766s0 .0883-.089.1765V52.3664c0 .0883 0 .0883.089.1765 0 .0883.088.0883.088.1766s.088.0883.088.1765l2.651 3.9724c0 .0883.088.0883.088.1766 0 .0882.088.0882.088.1765.089 0 .089.0883.177.0883.089 0 .089.0883.177.0883s.088.0882.177.0882c.088 0 .088.0883.176.0883.089 0 .089 0 .177.0883H124.946c.088 0 .088 0 .177-.0883.088 0 .088 0 .176-.0883.089-.0882.089-.0882.177-.0882s.088-.0883.177-.0883c.088 0 .088-.0883.176-.0883l4.241-3.1779c.088 0 .088-.0883.177-.0883.088-.0882.088-.0882.177-.1765l.176-.1766c0-.0882.089-.0882.089-.1765 0-.0883.088-.0883.088-.1766 0-.0882.088-.0882.088-.1765 0-.0883.089-.0883.089-.1766 0-.0882 0-.0882.088-.1765V51.8367c0-.0882 0-.0882-.088-.1765 0-.0883-.089-.0883-.089-.1766 0-.0882-.088-.0882-.088-.1765 0 0 0-.0883-.088-.0883l-.089-.0883-.088-.0882-.088-.0883s-.089 0-.089-.0883h-.883Zm1.943-9.1806c-.088 0-.088 0 0 0h-.441c-.177 0-.265 0-.354.0883-.088 0-.265.0883-.353.1765-.089.0883-.265.0883-.354.1766l-3.092 2.2951-1.944-2.8248c0-.0883-.088-.0883-.088-.1765 0-.0883-.088-.0883-.088-.0883s-.089-.0883-.177-.0883-.088-.0883-.177-.0883c-.088 0-.088-.0882-.176-.0882-.089 0-.089-.0883-.177-.0883s-.088 0-.177-.0883H123.09c-.088 0-.088 0-.176.0883-.089 0-.089 0-.177.0883-.088 0-.088.0882-.177.0882-.088 0-.088.0883-.176.0883-.089 0-.089.0883-.177.0883l-4.064 3.0896c-.089.0883-.177.1766-.265.2649-.089.0882-.177.1765-.265.3531-.089.0882-.177.2648-.177.3531-.088.0882-.088.2648-.088.3531 0 .0882-.089.2648-.089.3531v.3531c0 .0882.089.2648.089.3531 0 .0882.088.2648.176.3531 0 0 0 .0882.089.0882.088 0 .088.0883.088.0883l.088.0883s.089 0 .089.0883c0 0 .088 0 .088.0882H118.673s.088 0 .088-.0882c0-.0883.089 0 .089-.0883l.088-.0883 2.032-1.5889c.088 0 .088-.0883.177-.0883.088 0 .088-.0883.176-.0883.089 0 .089-.0883.177-.0883s.088-.0882.177-.0882c.088 0 .088 0 .177-.0883h.706c.089 0 .089 0 .177.0883.088 0 .088 0 .177.0882.088.0883.088.0883.176.0883.089 0 .089.0883.177.0883.089 0 .088.0883.177.0883.088 0 .088.0882.088.0882 0 .0883.089.0883.089.1766l1.325 1.942c0 .0883.088.0883.088.1766 0 0 .088.0883.177.0883.088 0 .088.0882.177.0882.088 0 .088.0883.176.0883H126.183s.088 0 .088-.0883c0 0 .088 0 .088-.0882l.089-.0883 2.12-1.589c.089-.0882.177-.1765.354-.1765.088-.0883.265-.0883.353-.1766.088 0 .265-.0882.353-.0882h.354c.088 0 .265 0 .353.0882.089 0 .265.0883.354.1766.088.0883.176.0883.265.1765.088.0883.176.1766.265.2649l1.325 1.942c0 .0883.088.0883.177.1766l.176.1765c.089 0 .089.0883.177.0883s.177 0 .265.0883h.53c.089 0 .177-.0883.265-.0883.089 0 .177-.0883.177-.0883.088 0 .088-.0883.177-.0883.088 0 .088-.0882.176-.1765.089-.0883.089-.0883.177-.1766 0-.0882.088-.0882.088-.1765 0-.0883.089-.0883.089-.1766 0-.0882.088-.0882.088-.1765 0-.0883.088-.0883.088-.1766 0-.0882 0-.0882.089-.1765V46.8933c0-.0882 0-.0882-.089-.1765 0-.0883-.088-.0883-.088-.1766 0-.0882-.088-.0882-.088-.1765l-2.562-3.7959a60.163 60.163 0 0 1-.265-.2648c-.089-.0882-.177-.1765-.265-.1765-.089-.0883-.177-.0883-.354-.1766 0-.2648-.088-.2648-.177-.2648Z" fill="#F2F2F2"/>
</svg>
