<svg xmlns="http://www.w3.org/2000/svg" fill="none" viewBox="6.93 0 175.58 168">
  <path opacity=".3" d="M32.5719 107.927C14.0272 77.6164 95.882-39.427 154.687 13.6027c21.868 19.7208 37.803 43.5211 20.477 66.6809-26.777 35.8024-35.43 46.0414-37.005 57.8544-1.575 11.814.787 27.565-23.627 29.141-24.4151 1.575-39.8724 1.128-55.1303-7.089-30.7099-16.544-16.5337-35.445-26.8298-52.263Z" fill="#D3E6F2"/>
  <path d="M82.9682 85.7927c4.2652-20.7784-9.1214-41.0803-29.8999-45.3455C32.2899 36.182 11.988 49.5686 7.7228 70.347c-4.2652 20.7785 9.1214 41.08 29.8999 45.346 20.7784 4.265 41.0803-9.122 45.3455-29.9003Z" fill="#78E1F2"/>
  <path d="M86.3209 140.054c-2.2629.688-6.8256 1.302-9.162 1.854-3.9956.94-1.1971 6.185 6.122 4.2 2.2315-.598 5.4973-1.832 6.8991-3.008.9766-.825 1.3074-3.691-3.8591-3.046Z" fill="#fff" stroke="#163050" stroke-width="1.5751" stroke-linecap="round" stroke-linejoin="round"/>
  <path d="M85.5596 125.143c0 3.439.525 10.134.3465 15.421 0 1.281 2.7775 1.428 2.7775.147 0 0 1.2129-11.415 1.2129-15.095 0-3.681-4.3369-3.912-4.3369-.473Z" fill="#FFD167" stroke="#163050" stroke-width="1.5751" stroke-linecap="round" stroke-linejoin="round"/>
  <path d="M103.527 140.947c2.042.84 6.269 1.612 8.469 2.625 4.242 1.975 1.003 6.395-6.511 3.581-2.231-.835-3.791-1.218-5.324-2.693-1.3177-1.25-1.806-4.71 3.366-3.513Z" fill="#fff" stroke="#163050" stroke-width="1.5751" stroke-linecap="round" stroke-linejoin="round"/>
  <path d="M100.576 126.44c0 3.46 1.008 10.228 1.092 15.557 0 1.15 2.778 1.297 2.778.147 0 0 .483-11.551.483-15.226 0-3.675-4.353-3.938-4.353-.478Z" fill="#FFD167" stroke="#163050" stroke-width="1.5751" stroke-linecap="round" stroke-linejoin="round"/>
  <path d="M54.8181 65.3303c0-3.1503 2.3574-5.3922 5.6547-5.6232 11.4775-.8191 52.1322 0 68.2562.609a5.7787 5.7787 0 0 1 2.224.4943c.701.3107 1.333.758 1.859 1.3156a5.753 5.753 0 0 1 1.206 1.9324c.27.7178.394 1.4822.366 2.2485v29.9644H54.0305l.7876-30.941Z" fill="#02BAEC"/>
  <path d="M129.9 71.7411V70.229c0-2.6252-2.143-4.6204-4.768-4.8304-15.315-1.2181-46.3195-1.4334-61.9816-.5513a3.2605 3.2605 0 0 0-3.2133 3.1975v2.5517m-5.1192-5.2662c0-3.1503 2.3575-5.3922 5.6548-5.6232 11.4775-.8191 52.1323 0 68.2563.609a5.7738 5.7738 0 0 1 2.223.4943c.701.3107 1.334.758 1.86 1.3156a5.7847 5.7847 0 0 1 1.206 1.9324 5.767 5.767 0 0 1 .365 2.2485v14.9428L54.396 70.9358l.4219-5.6055Z" stroke="#163050" stroke-width="1.5751" stroke-linecap="round" stroke-linejoin="round"/>
  <path opacity=".1" d="M59.9159 68.0446s48.2571-.0368 69.1801-.1156c2.746.1576 4.967 1.0921 4.967 6.7364 0 0-.263-3.1503-8.107-2.9613-7.844.189-65.4888-.6563-65.4888-.6563-7.3507-1.4596-6.6209-7.2981.756-5.5655-1.5698 1.9585-1.3073 2.5623-1.3073 2.5623Z" fill="#163050"/>
  <path d="M134.368 95.7728c3.454.9608 4.2-4.0271 4.2-9.7291a8.208 8.208 0 0 0-1.167-4.0617 8.2103 8.2103 0 0 0-3.033-2.9424v16.7332Z" fill="#08C" stroke="#163050" stroke-width="1.5751" stroke-linecap="round" stroke-linejoin="round"/>
  <path opacity=".2" d="M142.727 83.6067c-6.878-7.5239-16.634-11.5825-25.292-15.2263-16.014-6.7416-24.0627-15.5781-18.219-19.7995 17.038-1.5279 29.754 3.8066 41.605 14.5648 7.854 6.9883 7.98 19.2167 1.906 20.461Z" fill="#163050"/>
  <path d="M150.487 36.6146c-.583 4.8987-10.931 1.6487-12.837-1.3126-4.831 5.6548-.783 17.9408-.42 20.4348 2.667 18.4764-43.7315 1.0501-34.48-14.8115 6.972-11.9764 20.251-23.0443 29.402-22.6453 12.98.5723 11.735 11.9238 14.486 14.8798 2.164 2.2945 3.938 2.6935 3.849 3.4548Z" fill="#C8B1FF" stroke="#163050" stroke-width="1.5751" stroke-linecap="round" stroke-linejoin="round"/>
  <path d="M139.351 64.3109c.425 11.866-43.2798-3.1976-40.6388-14.066.7036-2.914 2.3788-6.3898 4.0218-9.3196-.367 7.4189 30.085 21.5951 34.128 13.5409l.095-.0945c1.029 4.2056 2.2 7.923 2.394 9.9392Z" fill="#FFD167" stroke="#163050" stroke-width="1.5751" stroke-linecap="round" stroke-linejoin="round"/>
  <path d="M137.828 35.5695a13.8403 13.8403 0 0 1-2.987-4.6047" stroke="#163050" stroke-width="1.5751" stroke-linecap="round" stroke-linejoin="round"/>
  <path opacity=".2" d="M137.251 55.7367c-3.676-4.3527-9.052-13.4937-2.872-24.8295a21.9623 21.9623 0 0 0 3.224 4.2529c-4.416 5.1297-1.355 16.3289-.352 20.5766Z" fill="#163050"/>
  <path d="M128.739 128.829c-24.356 1.665-44.2032 1.218-68.2556-.609a6.0757 6.0757 0 0 1-3.8285-1.798 6.0748 6.0748 0 0 1-1.7265-3.862 318.1552 318.1552 0 0 1-.1103-57.4662 5.7391 5.7391 0 0 0 3.4388 5.4539 5.7393 5.7393 0 0 0 2.216.4791c23.249.9346 45.7421 1.1341 68.2561.609a5.7288 5.7288 0 0 1 5.655 5.723s.241 34.3692 0 45.8212c-.058 3.076-2.248 5.444-5.645 5.649Z" fill="#02BAEC" stroke="#163050" stroke-width="1.5751" stroke-linecap="round" stroke-linejoin="round"/>
  <path d="M127.642 126.089c.975 0 1.909-.388 2.599-1.077a3.6754 3.6754 0 0 0 1.076-2.599m0-43.9355a3.7428 3.7428 0 0 0-3.675-3.7436l3.675 3.7436Z" stroke="#163050" stroke-width="1.5751" stroke-linecap="round" stroke-linejoin="round"/>
  <path opacity=".1" d="M136.337 107.145c0 8.579-27.828 13.037-27.828-2.274 0-17.2318 22.688-9.7447 27.828-13.2992v15.5732Z" fill="#163050"/>
  <path d="m130.887 111.135-8.207.31c-10.742.404-10.832-16.4075 0-16.8013l8.17-.3045h.031c4.248-.1575 7.692-3.8644 7.692-8.2747v16.8015c.006 4.405-3.423 8.107-7.686 8.269Z" fill="#02BAEC" stroke="#163050" stroke-width="1.5751" stroke-linecap="round" stroke-linejoin="round"/>
  <path d="M127.138 102.866c0-5.5552-8.096-5.2507-8.096.304 0 5.555 8.096 5.277 8.096-.304Z" fill="#FFD167" stroke="#163050" stroke-width="1.5751" stroke-linecap="round" stroke-linejoin="round"/>
  <path d="M135.764 98.3081v6.4319" stroke="#163050" stroke-width="1.5751" stroke-linecap="round" stroke-linejoin="round"/>
  <path d="M47.0998 83.8859c-.8033-2.3207 2.0687-3.2238 2.8982-.9083 2.935 8.1382 19.7103 52.9454 19.9518 53.5284 1.0921 2.536-3.019 4.2-4.1111 1.444-.2363-.62-15.9089-45.9154-18.7389-54.0641Z" fill="#C8B1FF" stroke="#163050" stroke-width="1.5751" stroke-linecap="round" stroke-linejoin="round"/>
  <path d="M53.243 101.686c-3.4705 2.368-6.689 6.521-6.689 13.094 0 13.016 17.8515 25.129 23.1492 15.93 2.1685-3.749-1.8114-9.724-5.2504-8.994 0 0 .6458 1.643.8768 2.19 1.0501 2.43-2.7985 4.111-3.8066 1.443-.294-.777-1.0921-2.929-1.0921-2.929-2.1002.446-3.103 2.772-3.103 2.772-7.7339-4.311-8.469-14.743-2.9455-20.025l-1.1394-3.481Z" fill="#fff" stroke="#163050" stroke-width="1.5751" stroke-linecap="round" stroke-linejoin="round"/>
  <path opacity=".1" d="M41.8863 96.3026c-4.2634-.2258-4.2791 6.3004 0 6.5104 4.2791.21 4.2844-6.2846 0-6.5104Z" fill="#163050"/>
  <path d="M40.8364 97.0218c-1.9479-.105-1.9531 2.8667 0 2.9717 1.9532.1055 1.9585-2.872 0-2.9717Z" fill="#FFD167" stroke="#163050" stroke-width="1.5751" stroke-linecap="round" stroke-linejoin="round"/>
  <path opacity=".1" d="M52.4135 80.7247c4.4052 4.6781 11.0995-1.6802 6.6734-6.3741-4.4262-4.6939-11.0942 1.6802-6.6734 6.3741Z" fill="#163050"/>
  <path d="M52.4662 78.0939c2.9455 3.1503 7.4189-1.1236 4.4576-4.2633-2.9613-3.1398-7.4137 1.1236-4.4576 4.2633ZM39.8438 66.6957l-3.5493-1.6539-3.6858.8873.2835-3.8433-2.1632-3.3183 3.7278-.7193 2.3522-2.9403 2.0215 3.4023 3.6123 1.4964-2.4835 2.8247-.1155 3.8644Z" fill="#FFD167" stroke="#163050" stroke-width="1.5751" stroke-linecap="round" stroke-linejoin="round"/>
  <path d="M81.69 92.3491a4.7993 4.7993 0 0 0-4.0901 2.2787" stroke="#163050" stroke-width="1.5751" stroke-linecap="round" stroke-linejoin="round"/>
  <path d="M81.6901 99.5164c1.3049 0 2.3627-1.0578 2.3627-2.3627 0-1.3049-1.0578-2.3627-2.3627-2.3627-1.3049 0-2.3627 1.0578-2.3627 2.3627 0 1.3049 1.0578 2.3627 2.3627 2.3627Z" fill="#1D314D" stroke="#163050" stroke-width="1.5751" stroke-linecap="round" stroke-linejoin="round"/>
  <path d="M81.0024 97.1431a.8821.8821 0 1 0 0-1.7643.8821.8821 0 0 0 0 1.7643Z" fill="#fff"/>
  <path d="M106.404 94.8905a4.8046 4.8046 0 0 0-1.636-1.7798 4.802 4.802 0 0 0-2.297-.7562" stroke="#163050" stroke-width="1.5751" stroke-linecap="round" stroke-linejoin="round"/>
  <path d="M102.167 99.5164c1.305 0 2.363-1.0578 2.363-2.3627 0-1.3049-1.058-2.3627-2.363-2.3627s-2.3628 1.0578-2.3628 2.3627c0 1.3049 1.0578 2.3627 2.3628 2.3627Z" fill="#1D314D" stroke="#163050" stroke-width="1.5751" stroke-linecap="round" stroke-linejoin="round"/>
  <path d="M101.479 97.1431a.8822.8822 0 0 0 0-1.7642.8821.8821 0 0 0 0 1.7642Z" fill="#fff"/>
  <path d="M101.196 104.745c0 .121 0 5.466-4.2849 7.876a9.0332 9.0332 0 0 1-3.4075 1.081c-.147 0-.294.037-.4463.048a10.1371 10.1371 0 0 1-3.1503-.2c-5.4815-1.297-6.374-7.351-6.374-7.351l17.663-1.454Z" fill="#1D314D" stroke="#163050" stroke-width="1.5751" stroke-linecap="round" stroke-linejoin="round"/>
  <path d="M97.3944 110.3a19.5311 19.5311 0 0 1-.4831 2.332 9.051 9.051 0 0 1-3.4075 1.081c-.147 0-.294.037-.4463.048-1.0541.098-2.117.031-3.1503-.2a14.4761 14.4761 0 0 0 1.2654-4.153 3.1513 3.1513 0 0 1 1.229-2.075 3.1532 3.1532 0 0 1 2.3361-.598 3.155 3.155 0 0 1 2.0745 1.229 3.151 3.151 0 0 1 .5979 2.336h-.0157Z" fill="#57B9E6" stroke="#163050" stroke-width="1.5751" stroke-linecap="round" stroke-linejoin="round"/>
  <path d="M94.0653 110.873a10.2635 10.2635 0 0 1-.525 2.757" stroke="#163050" stroke-width="1.5751" stroke-linecap="round" stroke-linejoin="round"/>
</svg>
