<svg xmlns="http://www.w3.org/2000/svg" fill="none" viewBox="0 0 173.37 150">
  <path d="M33.7677 109.481C1.1664 112.394-8.994 89.5307 8.4111 69.6689 20.4268 56.0745 46.0484 29.8568 71.2283 9.4652 84.1275-.9512 95.2597-3.158 117.436 4.7867c37.284 13.3295 43.91 21.8922 40.553 42.4603-3.181 19.4205-11.574 28.248-26.594 35.2217-29.067 13.5061-61.5803 23.7463-97.6273 27.0123Z" fill="#C6F0FF"/>
  <path opacity=".1" d="M58.1086 125.46C18.4392 133.404 30.8966 150 42.3822 150c10.2487 0 20.8507-10.858 45.4122-10.858 9.8952 0 15.7266 1.942 25.0036 1.942 7.951 0 13.606-7.15 13.606-10.769 0-8.563-14.755-14.212-28.0075-14.212-14.8429 0-19.5255 4.502-25.5333 6.267-4.771 1.412-9.807 2.03-14.7546 3.09Z" fill="#163050"/>
  <path d="M13.5791 41.07c9.2768 17.5667 14.8429 45.4616 14.2244 69.472-.265 9.534 3.8092 8.958 18.6965 8.958 14.3128-3.089 58.689-14.853 71.5-14.5-1.944-57.6435 1.511-71.6982 1.511-76.8182 0-5.1199-4.417-9.9751-18.288-7.4151-13.8712 2.56-29.3325 2.3834-68.0301 15.4481-10.5137 3.4428-14.6662 4.149-19.6138 4.8552Z" fill="#02BAEC"/>
  <path d="M61.6428 127.578c-25.1799 4.678-10.1603 14.565 1.502 6.002 3.534-2.56 7.3331-7.679-1.502-6.002Z" fill="#fff"/>
  <path d="M13.0497 39.5679C9.339 30.299 82.1399 15.6454 85.0555 15.0275c3.534-.7945 5.4777.2648 6.7146 2.3834 4.1525-1.2359 7.3331 3.8841 7.3331 3.8841-55.8376 6.4441-83.5796 24.2756-86.0535 18.2729Z" fill="#009BE2"/>
  <path d="M87.1756 123.605c1.502-2.207 22.9714 1.148 18.2004 5.385-4.771 4.325-21.2926-.795-18.2004-5.385Z" fill="#fff"/>
  <path d="M124 29c-14.286 18.5304-20 78-20 78l17.662-2.499L124 29Z" fill="#009ADB"/>
  <path d="M59.522 118.31c.1767 4.413.5301 8.386.6184 9.798.1767 1.413 3.6224 6.003 4.4176-.088.7951-6.091 1.5019-11.741 1.5019-11.741l-6.5379 2.031ZM85 112.266s3.3252 10.041 3.8644 11.578c.5392 1.538 4.2239 1.9 4.134-1.176-.0899-3.075-1.2582-11.668-1.2582-11.668L85 112.266Z" fill="#FFD167"/>
  <path d="M63.8512 60.0482c0-6.3558-10.337-4.8552-10.337 1.5006s10.337 4.9435 10.337-1.5006ZM88.8544 53.9564c0-6.3558-10.3371-4.8552-10.3371 1.5006 0 6.4441 10.3371 4.9435 10.3371-1.5006Z" fill="#163050"/>
  <path d="M59.9637 128.373c-2.9156 1.148-7.3331 2.383-9.9836 3.354-4.8593 1.854-.4418 8.033 8.4816 4.326 10.2487-4.237 10.2487-8.033 6.538-8.563M93.2721 122.635c2.7388.795 6.7146 1.412 10.0719 2.472 5.654 1.765 1.767 8.033-8.0399 5.031-2.9156-.882-4.9476-1.235-6.9797-3.001-1.3252-1.148-2.1204-3.796.1767-4.679" stroke="#163050" stroke-width="2.0592" stroke-miterlimit="10" stroke-linecap="round" stroke-linejoin="round"/>
  <path d="M59.6987 118.397c0 .883.3534 9.357.5301 10.24.3534 2.737 4.5943 2.472 4.5943-.353.7068-7.856.6184-9.181 1.8553-11.741M85.5 111.5l3.708 12.723c.3534 2.03 4.3292 1.324 3.9757-.706L92 110" stroke="#163050" stroke-width="2.0592" stroke-miterlimit="10" stroke-linecap="round" stroke-linejoin="round"/>
  <path d="M120.5 104.5c-35.1635 4.855-92.7844 25.021-92.9611 9.838-.1767-19.5091-1.8554-48.4634-14.4012-74.5045" stroke="#163050" stroke-width="2.0592" stroke-miterlimit="10" stroke-linecap="round" stroke-linejoin="round"/>
  <path d="M119.512 28.3585c-.177-5.0316-4.506-8.9157-9.542-8.4744-59.5481 4.7669-90.2057 24.1874-96.6553 20.0385-3.799-2.4717 16.6099-15.3599 72.9775-24.9819 2.2088-.3531 4.2409.4414 5.5662 2.0304M55.3696 81.6753c5.8312 5.8261 19.9673 4.8551 19.9673 4.8551M53.7791 83.6174s.9718-2.8248 3.0039-3.9724M65.0879 89.8853c2.0321.5296 3.269.5296 3.269.5296M63.321 59.5183c.4418 6.0909-9.1 8.4744-9.8068 2.3834-.6185-6.2676 9.3651-8.651 9.8068-2.3834ZM88.4126 53.6037c.4417 6.091-9.1001 8.4744-9.8069 2.3835-.6184-6.1793 9.3651-8.5627 9.8069-2.3835Z" stroke="#163050" stroke-width="2.0592" stroke-miterlimit="10" stroke-linecap="round" stroke-linejoin="round"/>
  <path d="M98.9264 20.8543c-.8835-2.3834-3.3573-3.8841-5.9195-3.531-29.0673 3.6193-57.6046 12.9764-71.3873 18.626-1.1485.4414-1.8553 1.6773-1.1485 3.531" stroke="#163050" stroke-width="2.0592" stroke-miterlimit="10" stroke-linecap="round" stroke-linejoin="round"/>
  <path d="M23.6519 53.5146c2.7388 8.9158 5.0359 18.9792 5.0359 18.9792M20.6479 45.041c.3531.8828.7063 1.8538 1.1476 2.8248" stroke="#fff" stroke-width="2.0592" stroke-miterlimit="10" stroke-linecap="round" stroke-linejoin="round"/>
  <path d="M62.2611 58.987c0 3.4428-5.6544 3.4428-5.6544 0 0-3.3544 5.6544-3.3544 5.6544 0Z" fill="#fff"/>
  <path d="M62.4378 58.4582c.2651 3.7075-5.4777 5.1199-5.8311 1.4124-.4417-3.7076 5.5661-5.12 5.8311-1.4124Z" stroke="#163050" stroke-width="2.0592" stroke-miterlimit="10" stroke-linecap="round" stroke-linejoin="round"/>
  <path d="M87.4411 52.8088c0 3.4427-5.6545 3.4427-5.6545 0 0-3.3544 5.6545-3.3544 5.6545 0Z" fill="#fff"/>
  <path d="M87.706 52.2785c.2651 3.7076-5.4777 5.12-5.8311 1.4124-.4418-3.7075 5.4777-5.12 5.8311-1.4124Z" stroke="#163050" stroke-width="2.0592" stroke-miterlimit="10" stroke-linecap="round" stroke-linejoin="round"/>
  <path d="M104.249 33.3011v16.6381c0 27.4067 8.684 46.7313 32.876 59.9158C164.672 94.887 170 76.9621 170 50.0521v-16.751c-17.073-2.8219-29.474-7.4725-32.717-9.3011h-.158l-.295.1355c-8.502 4.2441-22.945 7.5853-32.581 9.1656Z" fill="#A682FF"/>
  <path clip-rule="evenodd" d="M104.249 33.3003v16.6381c0 27.226 8.525 46.6184 32.876 59.8926C163.833 95.3151 170 78.2255 170 50.0513v-16.751a151.2113 151.2113 0 0 1-33.17-9.2334c-8.502 4.3119-22.945 7.6531-32.581 9.2334Z" stroke="#163150" stroke-width="2" stroke-linecap="round" stroke-linejoin="round"/>
  <path opacity=".2" d="M104.386 58.4954c0 .903 0 1.8061.181 2.7542.113 1.49.249 3.0251.476 4.5151 0 .8353.249 1.6706.386 2.5511.158.8352.317 1.6931.498 2.551.182.8579.363 1.6254.567 2.4381v.2258c.454 1.7157.998 3.4766 1.633 5.2149l.408 1.0611c.317.8578.68 1.7157 1.065 2.5962.386.8804.794 1.7157 1.247 2.5736a52.5825 52.5825 0 0 0 3.038 5.1246l1.202 1.6706a82.2093 82.2093 0 0 0 1.927 2.4607l1.043 1.2191a58.2442 58.2442 0 0 0 4.716 4.7185c.658.587 1.315 1.151 2.018 1.693.703.542 1.406 1.129 2.267 1.67 1.474 1.107 3.061 2.258 4.739 3.206.839.519 1.7 1.039 2.584 1.535.885.497 1.814 1.016 2.767 1.513l1.496-.79c.68-.316 1.338-.7 1.972-1.039 1.24-.692 2.442-1.399 3.605-2.122l.726-.474 1.36-.813.499-.316.839-.609.317-.226 1.247-.926 1.225-.948.249-.203.159-.248 1.088-.926 1.338-1.1738c.725-.6772 1.428-1.3319 2.063-2.0092a40.8997 40.8997 0 0 0 3.424-3.8152l1.156-1.2868c.929-1.2417 1.768-2.4833 2.539-3.7476.295-.4966.612-1.0158.884-1.5351.499-.888.953-1.7684 1.361-2.6413a41.548 41.548 0 0 0 2.267-5.3504 47.2347 47.2347 0 0 0 1.338-4.6957c.363-1.505.657-3.0552.884-4.6506 0-.6998.227-1.4222.295-2.2575.068-.8353.136-1.1288.181-1.6706.159-1.5577.25-3.0702.318-4.5151v-8.0369c-5.288-7.4969-13.126-12.8308-22.061-15.0126-16.655-4.309-34.175 2.7881-43.078 17.4508l.884 2.2575-1.337 1.0385Z" fill="#003C77"/>
  <path d="M115.903 85.9471c4.678 4.6596 11.023 7.2776 17.64 7.2776 6.616 0 12.961-2.618 17.639-7.2776a25.2706 25.2706 0 0 0 2.607-3.0703c7.119-9.8793 6.006-23.438-2.629-32.0357-8.634-8.5977-22.251-9.7056-32.173-2.6176a25.3193 25.3193 0 0 0-3.084 2.5962c-4.679 4.6574-7.309 10.9755-7.309 17.5637 0 6.5881 2.63 12.9063 7.309 17.5637Z" fill="#E3EDFF" stroke="#163150" stroke-width="2" stroke-linecap="round" stroke-linejoin="round"/>
  <path opacity=".2" d="M115.903 85.9474c4.678 4.6596 11.023 7.2776 17.639 7.2776 6.617 0 12.962-2.618 17.64-7.2776a25.3672 25.3672 0 0 0 2.607-3.0702c.97-9.4538-2.384-18.8403-9.133-25.5599-6.748-6.7196-16.175-10.059-25.669-9.0935a25.3283 25.3283 0 0 0-3.084 2.5962c-4.68 4.6574-7.309 10.9756-7.309 17.5637 0 6.5882 2.629 12.9063 7.309 17.5637Z" fill="#003C77"/>
  <path d="M104.598 97.2605c-9.7192-9.7188-9.7192-25.4761 0-35.1949 9.718-9.7187 25.476-9.7187 35.194.0001 9.719 9.7187 9.719 25.476 0 35.1948-9.718 9.7185-25.476 9.7185-35.194 0Z" fill="url(#a)" stroke="#163150" stroke-width="2" stroke-linecap="round" stroke-linejoin="round"/>
  <path d="M138.961 80.8904c.583-6.1447-2.346-12.0953-7.58-15.4015-5.234-3.3062-11.889-3.4089-17.224-.2659l8.321 13.5453-15.871-3.2508c-1.431 5.9651.602 12.2267 5.27 16.2286 4.667 4.0018 11.188 5.0741 16.9 2.7791 5.712-2.295 9.659-7.5733 10.23-13.6799l-.046.0451Z" fill="#FFC835" stroke="#FFAE25" stroke-width="3.7183" stroke-linecap="round" stroke-linejoin="round"/>
  <path d="M169.802 63.7559c-.884 5.8261-1.325 7.1502-1.325 7.1502 4.859-2.5599 3.975-6.0909 1.325-7.1502Z" fill="#009BE2"/>
  <path opacity=".1" d="M169.537 65.647c-9.63 7.4151-25.975 21.8039-20.409 40.342 3.799 12.623 17.582.441 17.582.441s.795-28.1597 2.827-40.783Z" fill="#163050"/>
  <path d="M171.922 68.4722c-4.241 3.0013-4.506 2.5599-8.393 3.2661-3.799.7062-11.751 8.4745-10.337 21.804 1.413 13.3297 12.104 9.8867 14.047 8.6507 4.595-2.8245 5.478-7.0618 4.683-33.7208Z" fill="#02BAEC"/>
  <path d="M169.449 87.0098c0-10.0633-10.691-7.5916-10.691 2.4717.089 10.1517 10.691 7.68 10.691-2.4717Z" fill="#FFD167"/>
  <path d="M170.332 63c1.59 2.2069 3.357 6.8855-4.682 8.4744-15.373 3.0896-16.964 30.7196-4.683 31.8676 10.072.882 10.602-7.6802 10.779-10.0636 1.148-14.4772.353-25.0702-.089-26.9239" stroke="#163050" stroke-width="2.0592" stroke-miterlimit="10" stroke-linecap="round" stroke-linejoin="round"/>
  <path d="M169.272 87.3633c0-9.7986-10.514-8.2979-10.514 1.5889 0 9.8868 10.514 8.2979 10.514-1.5889Z" stroke="#163050" stroke-width="2.0592" stroke-miterlimit="10" stroke-linecap="round" stroke-linejoin="round"/>
  <path d="M23.8404 77C18.6859 80.5144 14 86.6061 14 95.9779c0 18.9781 26.0068 36.5501 33.7385 23.1951 3.0459-5.389-2.5772-12.886-7.7317-13.12-7.2632-.469-10.309 5.154-10.309 5.154-11.2462-6.326-13.8234-21.555-5.6231-29.0525L23.8404 77Z" fill="#fff" stroke="#153150" stroke-width="2" stroke-linecap="round" stroke-linejoin="round"/>
  <defs>
    <radialGradient id="a" cx="0" cy="0" r="1" gradientUnits="userSpaceOnUse" gradientTransform="rotate(-135 74.4416 4.3568) scale(20.314)">
      <stop offset=".06" stop-color="#FFEA80"/>
      <stop offset=".11" stop-color="#FFE77D"/>
      <stop offset=".47" stop-color="#FFD76C"/>
      <stop offset=".73" stop-color="#FFD166"/>
    </radialGradient>
  </defs>
</svg>
