<svg xmlns="http://www.w3.org/2000/svg" id="Capa_1" data-name="Capa 1" viewBox="0 0 555.7 555.7"><defs><style>.cls-1{fill:#ffce00}.cls-4{fill:#ffa21a}.cls-3{fill:#dfdfe3;isolation:isolate}</style></defs><path d="M101.25 439.06h100.92V275.08H101.25v163.98z" class="cls-1"/><path d="M202.17 439.06h151.37V193.09H202.17v245.97zM353.54 439.06h100.91V275.08H353.54v163.98z" class="cls-1"/><path d="M435.53 439.06h18.92V275.08h-18.92v163.98z" class="cls-1"/><path fill="#ffa21a" d="M101.25 439.06h18.93V275.08h-18.93v163.98z" opacity=".39"/><path d="M252.62 249.85H240a6.31 6.31 0 0 1-6.31-6.31v-12.61a6.31 6.31 0 0 1 6.31-6.31h12.61a6.31 6.31 0 0 1 6.31 6.31v12.61a6.31 6.31 0 0 1-6.31 6.31M315.7 249.85h-12.62a6.31 6.31 0 0 1-6.31-6.31v-12.61a6.31 6.31 0 0 1 6.31-6.31h12.62a6.31 6.31 0 0 1 6.31 6.31v12.61a6.31 6.31 0 0 1-6.31 6.31M252.62 300.31H240a6.31 6.31 0 0 1-6.3-6.31v-12.61a6.31 6.31 0 0 1 6.31-6.31h12.61a6.31 6.31 0 0 1 6.31 6.31V294a6.31 6.31 0 0 1-6.31 6.31M315.7 300.31h-12.62a6.31 6.31 0 0 1-6.31-6.31v-12.61a6.31 6.31 0 0 1 6.31-6.31h12.62a6.31 6.31 0 0 1 6.31 6.31V294a6.31 6.31 0 0 1-6.31 6.31M252.62 350.77H240a6.31 6.31 0 0 1-6.31-6.31v-12.62a6.31 6.31 0 0 1 6.31-6.31h12.61a6.31 6.31 0 0 1 6.31 6.31v12.61a6.31 6.31 0 0 1-6.31 6.31M315.7 350.77h-12.62a6.31 6.31 0 0 1-6.31-6.31v-12.62a6.31 6.31 0 0 1 6.31-6.31h12.62a6.31 6.31 0 0 1 6.31 6.31v12.61a6.31 6.31 0 0 1-6.31 6.31" class="cls-3"/><path d="M252.63 439.06h50.45V382.3h-50.45v56.76z" class="cls-4"/><path d="M132.79 413.84h37.84v-50.46h-37.84v50.46zM132.79 338.15h37.84v-37.84h-37.84v37.84zM385.07 413.84h37.85v-50.46h-37.85v50.46zM385.07 338.15h37.85v-37.84h-37.85v37.84z" class="cls-3"/><path d="M284.16 174.14a25.23 25.23 0 0 1-25.2-25.2 6.28 6.28 0 1 1 12.56 0 12.64 12.64 0 1 0 12.64-12.64 25.2 25.2 0 1 1 25.2-25.2 6.28 6.28 0 1 1-12.56 0 12.64 12.64 0 1 0-12.64 12.64 25.2 25.2 0 1 1 0 50.41z" class="cls-4"/><path d="M284.16 199.37a6.28 6.28 0 0 1-6.28-6.28V73.26a6.28 6.28 0 1 1 12.56 0v119.83a6.28 6.28 0 0 1-6.28 6.28z" class="cls-4"/><path d="M353.54 445.35H202.17a6.28 6.28 0 0 1-6.28-6.28v-246a6.28 6.28 0 0 1 6.28-6.28h151.37a6.28 6.28 0 0 1 6.28 6.28v246a6.28 6.28 0 0 1-6.28 6.28zm-145.09-12.57h138.8V199.37h-138.8z"/><path d="M454.45 445.35H353.54a6.28 6.28 0 0 1-6.28-6.28v-164a6.28 6.28 0 0 1 6.28-6.28h100.91a6.28 6.28 0 0 1 6.28 6.28v164a6.28 6.28 0 0 1-6.28 6.28zm-94.63-12.56h88.35V281.36h-88.35v151.42zM202.17 445.35H101.26a6.28 6.28 0 0 1-6.26-6.29v-164a6.28 6.28 0 0 1 6.28-6.28h100.89a6.28 6.28 0 0 1 6.28 6.28v164a6.28 6.28 0 0 1-6.28 6.29zm-94.63-12.56h88.35V281.36h-88.35z"/><path d="M101.26 281.36h-6.31a6.28 6.28 0 1 1 0-12.56h6.31a6.28 6.28 0 0 1 0 12.56zM460.76 281.36h-6.31a6.28 6.28 0 1 1 0-12.56h6.31a6.28 6.28 0 0 1 0 12.56zM366.15 199.37h-176.6a6.28 6.28 0 0 1 0-12.56h176.6a6.28 6.28 0 0 1 0 12.56zM252.62 256.14H240a12.6 12.6 0 0 1-12.59-12.59v-12.62A12.6 12.6 0 0 1 240 218.34h12.61a12.6 12.6 0 0 1 12.59 12.59v12.61a12.6 12.6 0 0 1-12.58 12.6zM240 230.91v12.64h12.64v-12.62zM315.7 256.14h-12.62a12.6 12.6 0 0 1-12.59-12.59v-12.62a12.6 12.6 0 0 1 12.59-12.59h12.62a12.6 12.6 0 0 1 12.59 12.59v12.61a12.6 12.6 0 0 1-12.59 12.6zm-12.61-25.23v12.64h12.64v-12.62zM252.62 306.59H240A12.6 12.6 0 0 1 227.42 294v-12.61A12.6 12.6 0 0 1 240 268.8h12.61a12.6 12.6 0 0 1 12.59 12.59V294a12.6 12.6 0 0 1-12.58 12.59zM240 281.36V294h12.64v-12.61zM315.7 306.59h-12.62A12.6 12.6 0 0 1 290.49 294v-12.61a12.6 12.6 0 0 1 12.59-12.59h12.62a12.6 12.6 0 0 1 12.59 12.59V294a12.6 12.6 0 0 1-12.59 12.59zm-12.61-25.23V294h12.64v-12.61zM252.62 357H240a12.6 12.6 0 0 1-12.59-12.59v-12.57A12.6 12.6 0 0 1 240 319.26h12.61a12.6 12.6 0 0 1 12.59 12.59v12.61A12.6 12.6 0 0 1 252.62 357zM240 331.82v12.64h12.64v-12.62zM315.7 357h-12.62a12.6 12.6 0 0 1-12.59-12.59v-12.57a12.6 12.6 0 0 1 12.59-12.59h12.62a12.6 12.6 0 0 1 12.59 12.59v12.61A12.6 12.6 0 0 1 315.7 357zm-12.61-25.23v12.64h12.64v-12.57zM303.08 445.35h-50.46a6.28 6.28 0 0 1-6.28-6.28V382.3a6.28 6.28 0 0 1 6.28-6.28h50.46a6.28 6.28 0 0 1 6.28 6.28v56.76a6.28 6.28 0 0 1-6.28 6.29zm-44.18-12.56h37.9v-44.2h-37.89v44.2zM277.85 174.14a25.23 25.23 0 0 1-25.2-25.2 6.28 6.28 0 1 1 12.56 0 12.64 12.64 0 1 0 12.64-12.64 25.2 25.2 0 1 1 25.2-25.2 6.28 6.28 0 1 1-12.56 0 12.64 12.64 0 1 0-12.64 12.64 25.2 25.2 0 1 1 0 50.41z"/><path d="M277.85 199.37a6.28 6.28 0 0 1-6.28-6.28V73.26a6.28 6.28 0 1 1 12.56 0v119.83a6.28 6.28 0 0 1-6.28 6.28zM170.63 420.12h-37.84a6.28 6.28 0 0 1-6.28-6.28v-50.46a6.28 6.28 0 0 1 6.28-6.28h37.84a6.28 6.28 0 0 1 6.28 6.28v50.46a6.28 6.28 0 0 1-6.28 6.28zm-31.56-12.56h25.28v-37.9h-25.28zM170.63 344.43h-37.84a6.28 6.28 0 0 1-6.28-6.28v-37.84a6.28 6.28 0 0 1 6.28-6.28h37.84a6.28 6.28 0 0 1 6.28 6.28v37.84a6.28 6.28 0 0 1-6.28 6.28zm-31.56-12.56h25.28v-25.28h-25.28zM422.91 420.12h-37.84a6.28 6.28 0 0 1-6.28-6.28v-50.46a6.28 6.28 0 0 1 6.28-6.28h37.84a6.28 6.28 0 0 1 6.28 6.28v50.46a6.28 6.28 0 0 1-6.28 6.28zm-31.56-12.56h25.28v-37.9h-25.28zM422.91 344.43h-37.84a6.28 6.28 0 0 1-6.28-6.28v-37.84a6.28 6.28 0 0 1 6.28-6.28h37.84a6.28 6.28 0 0 1 6.28 6.28v37.84a6.28 6.28 0 0 1-6.28 6.28zm-31.56-12.56h25.28v-25.28h-25.28z"/><path fill="#ff2434" d="M277.85 16.22c-144.5 0-261.64 117.14-261.64 261.64s117.14 261.63 261.64 261.63 261.64-117.14 261.64-261.64S422.35 16.22 277.85 16.22zM58.33 277.85c0-121.24 98.28-219.52 219.52-219.52a218.63 218.63 0 0 1 139.62 50.12l-309 309a218.63 218.63 0 0 1-50.14-139.6zm219.52 219.52a218.63 218.63 0 0 1-139.62-50.12l309-309a218.63 218.63 0 0 1 50.12 139.62c.02 121.22-98.26 219.5-219.5 219.5z"/><path d="M174.15 340.61l-65 65a211.65 211.65 0 0 1 8.69-266.25A7.9 7.9 0 1 0 105.89 129a227.44 227.44 0 0 0-3.53 293.48 7.9 7.9 0 0 0 5.71 2.86h.38a7.9 7.9 0 0 0 5.58-2.31l73.54-73.54.09-.09L423.06 114a7.9 7.9 0 0 0-.56-11.68 227.44 227.44 0 0 0-293.5 3.57 7.9 7.9 0 0 0 10.34 11.94 211.65 211.65 0 0 1 266.25-8.69L379.76 135M453.35 133.2a7.9 7.9 0 0 0-11.68-.56l-73.5 73.5-.19.19-191.46 191.46-.12.12-43.75 43.75a7.9 7.9 0 0 0 .56 11.68A227.43 227.43 0 0 0 453.35 133.2zm-71.79 81.89l65-65a212 212 0 0 1 42.91 127.77c0 116.69-94.93 211.62-211.62 211.62a212 212 0 0 1-127.77-42.91l25.86-25.86"/><path d="M468.44 87.26A269.53 269.53 0 0 0 87.26 468.44 269.53 269.53 0 0 0 468.44 87.26zM277.85 531.59c-139.91 0-253.74-113.83-253.74-253.74S137.94 24.11 277.85 24.11s253.74 113.83 253.74 253.74-113.83 253.74-253.74 253.74z"/></svg>
