<svg xmlns="http://www.w3.org/2000/svg" id="Capa_1" data-name="Capa 1" viewBox="0 0 534.28 493.58"><defs><style>.cls-2{fill:#c32434}.cls-3{fill:#fff}.cls-5{fill:#1a1a1a}</style></defs><g id="Symbols"><g id="icon_scam--warning" data-name="icon scam--warning"><g id="malware"><path id="Rectangle-path" fill="#ff2434" d="M14.92 14.37h504.44V406.6H14.92z"/><path id="Shape" d="M370.09 222.32A102.95 102.95 0 1 0 173.89 266a46.35 46.35 0 0 0 16 69.89v32.63h154.46v-32.64a46.35 46.35 0 0 0 16-69.89 102.25 102.25 0 0 0 9.74-43.67zm-134.35 31.92a18 18 0 0 1 0-36l18 18a18 18 0 0 1-18 18zm62.8 0a18 18 0 0 1-18-18l18-18a18 18 0 0 1 0 36z" class="cls-2"/><g id="Group"><path id="Shape-2" d="M333.79 270.68a82.36 82.36 0 1 0-133.3 0 25.74 25.74 0 0 0 10 49.45v27.8h113.27v-27.8a25.74 25.74 0 0 0 10-49.45zm-98-16.44a18 18 0 0 1 0-36l18 18a18 18 0 0 1-18.05 18zm62.8 0a18 18 0 0 1-18-18l18-18a18 18 0 0 1 0 36z" class="cls-3" data-name="Shape"/><path id="Rectangle-path-2" fill="#e7e7e7" d="M14.92 14.37h504.44v61.77H14.92z" data-name="Rectangle-path"/></g><path id="Shape-3" d="M54.55 182.17H39.11v-15.44h15.44zm0-30.88H39.11V105h15.44z" class="cls-3" data-name="Shape"/><path id="Rectangle-path-3" d="M14.92 76.14h504.44v20.59H14.92z" class="cls-2" data-name="Rectangle-path"/><path id="Rectangle-path-4" d="M38.6 38.56h18.57v18.57H38.6z" class="cls-5" data-name="Rectangle-path"/><path id="Rectangle-path-5" d="M69.48 38.56h18.57v18.57H69.48z" class="cls-5" data-name="Rectangle-path"/><path id="Rectangle-path-6" d="M100.37 38.56h18.57v18.57h-18.57z" class="cls-5" data-name="Rectangle-path"/><path id="Rectangle-path-7" d="M131.25 38.56h364.43v18.57H131.25z" class="cls-5" data-name="Rectangle-path"/><path id="Shape-4" d="M344.64 268.23a90.08 90.08 0 1 0-155 0 33.47 33.47 0 0 0 13.16 58.71v28.7h128.68v-28.7a33.47 33.47 0 0 0 13.16-58.71zm-13.86 9.56a18 18 0 0 1-7 34.62H316v27.8h-12.83v-20.09h-15.44v20.08h-12.87v-20.08h-15.44v20.08h-12.87v-20.08h-15.44v20.08h-12.87v-27.8h-7.72a18 18 0 0 1-7-34.62l8.95-3.79-5.71-7.86a74.64 74.64 0 1 1 120.81 0l-5.74 7.87z" class="cls-5" data-name="Shape"/><path id="Shape-5" d="M298.54 210.48h-3.2L272.8 233v3.2a25.74 25.74 0 1 0 25.74-25.74zm0 36a10.31 10.31 0 0 1-9.91-7.49l12.71-12.71a10.29 10.29 0 0 1-2.81 20.2z" class="cls-5" data-name="Shape"/><path id="Shape-6" d="M235.74 210.48a25.74 25.74 0 1 0 25.74 25.74V233l-22.54-22.54h-3.2zm0 36a10.3 10.3 0 0 1-2.81-20.2L245.64 239a10.31 10.31 0 0 1-9.9 7.52z" class="cls-5" data-name="Shape"/><path id="Rectangle-path-8" d="M242.43 279.46H261v18.57h-18.57z" class="cls-5" data-name="Rectangle-path"/><path id="Rectangle-path-9" d="M276.4 279.46h18.57v18.57H276.4z" class="cls-5" data-name="Rectangle-path"/><path id="Rectangle-path-10" d="M322.22 437.48h18.57v18.57h-18.57z" class="cls-5" data-name="Rectangle-path"/><path id="Rectangle-path-11" d="M322.22 468.37h18.57v18.57h-18.57z" class="cls-5" data-name="Rectangle-path"/><path id="Rectangle-path-12" d="M322.22 406.6h18.57v18.57h-18.57z" class="cls-5" data-name="Rectangle-path"/><path id="Rectangle-path-13" d="M259.93 437.48h18.57v18.57h-18.57z" class="cls-5" data-name="Rectangle-path"/><path id="Rectangle-path-14" d="M259.93 406.6h18.57v18.57h-18.57z" class="cls-5" data-name="Rectangle-path"/><path id="Rectangle-path-15" d="M259.93 375.71h18.57v18.57h-18.57z" class="cls-5" data-name="Rectangle-path"/><path id="Shape-7" d="M7.2 6.65v407.67h171.41v-15.44h-156v-315h489v315h-156v15.44h171.47V6.65zm15.44 61.77V22.09h489v46.33h-489z" class="cls-5" data-name="Shape"/><path id="Rectangle-path-16" d="M196.62 468.37h18.57v18.57h-18.57z" class="cls-5" data-name="Rectangle-path"/><path id="Rectangle-path-17" d="M196.62 437.48h18.57v18.57h-18.57z" class="cls-5" data-name="Rectangle-path"/><path id="Rectangle-path-18" d="M196.62 406.6h18.57v18.57h-18.57z" class="cls-5" data-name="Rectangle-path"/></g></g></g></svg>
