<svg xmlns="http://www.w3.org/2000/svg" id="Capa_1" data-name="Capa 1" viewBox="0 0 576.05 491.69"><defs><style>.cls-3{fill:#ffa21a}</style><linearGradient id="linear-gradient" x1="287.22" x2="287.22" y1="-433.18" y2="678.5" gradientUnits="userSpaceOnUse"><stop offset="0" stop-color="#1aa59c"/><stop offset="1" stop-color="#005daf"/></linearGradient></defs><path fill="url(#linear-gradient)" d="M47.42 479.51V12.17H527v467.35zm437.13-35.58V380H310.14v64zm-218 0V380H86.41v64zm218-95.76v-64H310.14v64zm-218 0v-64H86.41v64zm218-96.88v-64H310.14v64zm-218 0v-64H86.41v64zm216.87-99.14v-64H309v64zm-218 0v-64H85.29v64z"/><path d="M521 18.17v455.35H53.42V18.17H521m-218 140h186.42v-76H303v76m-223.73 0h192.15v-76H79.29v76m224.85 99.13h186.41v-76H304.14v76m-223.73 0h192.14v-76H80.41v76m223.73 96.88h186.41v-76H304.14v76m-223.73 0h192.14v-76H80.41v76m223.73 95.76h186.41V374H304.14v76m-223.73 0h192.14v-76H80.41v76M533 6.17H41.42v479.34H533V6.17zm-218 88h162.42v52H315v-52zm-223.73 0h168.15v52H91.29v-52zm224.86 99.14h162.42v52H316.14v-52zm-223.73 0h168.15v52H92.41v-52zm223.73 96.88h162.42v52H316.14v-52zm-223.73 0h168.15v52H92.41v-52zM316.14 386h162.41v52H316.14v-52zm-223.73 0h168.14v52H92.41v-52z"/><path fill="#81cc3b" d="M31.63 284V149.42h511.18V284zm462.71-34.58V188H79v61.46z"/><path d="M536.81 155.42V278H37.63V155.42h499.18M73 255.41h427.34V182H73v73.46m475.84-112H25.63V290h523.18V143.42zM85 194h403.34v49.46H85V194z"/><path d="M530.97 219.5l30.82-30.82v61.64l-30.82-30.82zM45.08 219.5l-30.82 30.82v-61.64l30.82 30.82z" class="cls-3"/></svg>
