<svg xmlns="http://www.w3.org/2000/svg" id="Capa_1" data-name="Capa 1" viewBox="0 0 663.74 663.69"><defs><style>.cls-1{fill:#81cc3b}.cls-2{fill:#7bba38}.cls-3{fill:#ffce00}.cls-5{fill:#fff}</style><linearGradient id="linear-gradient" x1="284.42" x2="198.92" y1="380.93" y2="463.42" gradientUnits="userSpaceOnUse"><stop offset="0" stop-color="#1aa59c"/><stop offset="1" stop-color="#005daf"/></linearGradient></defs><g id="Symbols"><g id="icon_champagne" data-name="icon champagne"><g id="champagne"><g id="Group"><path id="Rectangle-path" d="M498.65 112.94h30.29v73.96h-30.29z" class="cls-1" transform="rotate(-45 513.798 149.918)"/><path id="Shape" d="M150.82 642.79L20.93 512.89c49.34-58.56 70.4-81.89 99.84-109.05l139.1 139.1c-27.17 29.44-51.43 51.72-109.05 99.85z" class="cls-1"/><path id="Shape-2" d="M385.36 228.33c-64.74 47.27-89.36 37.51-165.7 92.25L343.07 444c54.49-76.13 44.87-100.8 92.29-165.64l-39.31-10.69z" class="cls-1" data-name="Shape"/></g><g id="Group-2" data-name="Group"><path id="Rectangle-path-2" d="M510.88 142.45h30.29v39.38h-30.29z" class="cls-2" data-name="Rectangle-path" transform="rotate(-45 526.03 162.14)"/><path id="Shape-3" d="M150.82 642.79c57.62-48.13 81.88-70.4 109-99.85l-71.2-71.24L84.17 576.14z" class="cls-2" data-name="Shape"/><path id="Shape-4" d="M343.07 444c54.49-76.13 44.87-100.8 92.29-165.64l-39.31-10.69-.73-2.67L279.7 380.62z" class="cls-2" data-name="Shape"/></g><g id="Group-3" data-name="Group"><path id="Shape-5" d="M343.07 444c-17.16 24-43.09 55.46-83.21 99l-139.1-139.1c43.49-40.14 75-66.09 98.9-83.26z" class="cls-3" data-name="Shape"/><path id="Shape-6" d="M483.55 141.1c-42.24 42.24-73.21 69-98.2 87.23l10.69 39.34 39.31 10.69c18.29-25 45-56 87.26-98.19z" class="cls-3" data-name="Shape"/></g><g id="Group-4" data-name="Group"><circle id="Oval" cx="237" cy="426.69" r="35.91" fill="url(#linear-gradient)"/><path id="Rectangle-path-3" d="M541.74 75.59h64.22v23.14h-64.22z" class="cls-3" data-name="Rectangle-path" transform="rotate(-45 573.845 87.166)"/><path id="Rectangle-path-4" d="M589.68 153h64.21v23.14h-64.21z" class="cls-3" data-name="Rectangle-path" transform="rotate(-20.18 621.67 164.57)"/><path id="Rectangle-path-5" d="M467.03 30.38h64.21v23.14h-64.21z" class="cls-3" data-name="Rectangle-path" transform="rotate(-69.82 499.16 41.94)"/></g><path id="Shape-7" d="M463.27 134.48l6.59 6.59C434.55 176 405 202 379.66 220.52c-30.53 22.3-51.89 31.55-74.51 41.34-23.63 10.24-48 20.81-84.41 46.13l-6.74 4.74-9.25 6.63.09.09c-23.22 17.41-50.8 40.77-83.83 71l-6.82 6.3-7.39 6.82c-27.18 25.77-49.61 51.17-93.33 103.06l-5.71 6.79 142.48 142.44 6.76-5.66c52.82-44.11 77.94-66.77 103.08-93.36l6.82-7.39 6.29-6.82c30.2-33 53.55-60.62 71-83.87l.09.09 6.63-9.26.06-.08 4.71-6.58c25.12-36.16 35.68-60.47 45.9-84 9.85-22.7 19.16-44.14 41.6-74.82 18.53-25.34 44.58-54.91 79.48-90.21l6.59 6.59 35.08-35.08-66-66zM151.4 629.7L34 512.34c42.49-50.29 62.73-72.59 86.49-95.06l116.39 116.34 9.55 9.55c-23.61 25-47.22 46.47-95.03 86.53zM259.57 529L134.72 404.14c33.35-30.5 61-53.81 84-70.87l55.85 55.85L330.39 445c-17.06 23-40.39 50.64-70.82 84zm124.27-177.8c-9.57 22-19.43 44.77-42.07 77.83L234.63 321.89c33.29-22.83 56.09-32.71 78.2-42.29 20.74-9 40.48-17.53 66.82-35.43l8.53 31.36 31.32 8.52c-18.02 26.49-26.63 46.31-35.67 67.14zm47.7-83.89l-27.61-7.51-7.51-27.64c24.89-18.75 53.51-44.18 87.12-77.41L509 180.18c-33.24 33.6-58.69 62.22-77.47 87.12zm97.7-94.18l-38.64-38.65 7.76-7.75L537 165.36z" data-name="Shape"/><g id="Group-5" data-name="Group"><path id="Shape-8" d="M208.58 121.26h19.33v-13.18h13.18V88.76h-13.18V75.58h-19.33v13.18H195.4v19.32h13.18v13.18z" class="cls-3" data-name="Shape"/><path id="Shape-9" d="M607.6 427.28h-19.33v13.18h-13.18v19.33h13.18v13.17h19.33v-13.17h13.18v-19.33H607.6v-13.18z" class="cls-3" data-name="Shape"/><path id="Shape-10" d="M395.82 541.84h-19.33v13.18h-13.18v19.33h13.18v13.18h19.33v-13.18H409v-19.33h-13.18v-13.18z" class="cls-3" data-name="Shape"/><path id="Rectangle-path-6" d="M51.55 317.96h23.14v23.14H51.55z" class="cls-3" data-name="Rectangle-path"/><path id="Rectangle-path-7" d="M479.3 382.86h23.14V406H479.3z" class="cls-3" data-name="Rectangle-path"/><path id="Rectangle-path-8" d="M112.79 226.81h23.14v23.14h-23.14z" class="cls-3" data-name="Rectangle-path"/></g><g id="Group-6" data-name="Group"><path id="Shape-11" d="M151.11 618.09l-36.75-36.75 13.67-13.67 24.13 24.13 36.98-31.5 12.53 14.71-50.56 43.08z" class="cls-5" data-name="Shape"/><path id="Rectangle-path-9" d="M91.84 540.83h23.14v26.37H91.84z" class="cls-5" data-name="Rectangle-path" transform="rotate(-45 103.41 554.016)"/></g></g></g></g></svg>
