<svg xmlns="http://www.w3.org/2000/svg" id="Capa_1" data-name="Capa 1" viewBox="0 0 529.6 676.48"><defs><style>.cls-1{fill:#ffe9c4}.cls-3{fill:#555860}.cls-4{fill:#8e9aa9}.cls-9{fill:#2a93e7}</style></defs><g id="Symbols"><g id="icon_scam--theif-3" data-name="icon scam--theif-3"><g id="hacker"><circle id="Oval" cx="237.29" cy="228.19" r="143.06" class="cls-1"/><path id="Shape" fill="#ffce00" d="M237.29 195.18a143.09 143.09 0 0 1 132.09 88 143.06 143.06 0 1 0-264.17 0 143.1 143.1 0 0 1 132.08-88z"/><path id="Shape-2" d="M347.33 316.23H288a39.66 39.66 0 0 1-39.66-39.66V250.2h99z" class="cls-3" data-name="Shape"/><path id="Shape-3" d="M296.44 250.2l-44 44a39.82 39.82 0 0 0 13 15l59-59h-28z" class="cls-4" data-name="Shape"/><path id="Shape-4" d="M127.25 316.23h59.38a39.66 39.66 0 0 0 39.66-39.66V250.2h-99z" class="cls-3" data-name="Shape"/><path id="Shape-5" d="M169.89 250.21l-42.64 42.64v23.38h1.83l66.03-66.02h-25.22z" class="cls-4" data-name="Shape"/><path id="Shape-6" fill="#a1abb8" d="M237.29 19.11c-77 11-187.08 66-187.08 198.08v440.18h374.16V217.19c0-132.05-110.05-187.07-187.08-198.08zm-55 374.15s-55-66-55-132.05c0-55 55-99 110-99s110 44 110 99c0 66-55 132.05-55 132.05z" data-name="Shape"/><g id="Group"><circle id="Oval-2" cx="182.27" cy="470.29" r="23.53" fill="#ff2433" data-name="Oval"/><circle id="Oval-3" cx="292.31" cy="470.29" r="23.53" fill="#db6b5e" data-name="Oval"/></g><path id="Shape-7" d="M83.23 349.24c0-132.69 60.22-251.29 154.82-330l-.76-.11c-77 11-187.08 66-187.08 198.08v440.16H213.7A427.87 427.87 0 0 1 83.23 349.24z" class="cls-4" data-name="Shape"/><path id="Shape-8" d="M114.87 613.35h-77a20.63 20.63 0 0 1-20.67-20.63V554.2a20.63 20.63 0 0 1 20.63-20.63h77a20.63 20.63 0 0 1 20.67 20.63v38.52a20.63 20.63 0 0 1-20.63 20.63z" class="cls-1" data-name="Shape"/><path id="Shape-9" fill="#f7c14d" d="M17.2 580.51v12.21a20.63 20.63 0 0 0 20.63 20.63h77a20.63 20.63 0 0 0 20.63-20.63v-12.21z" data-name="Shape"/><path id="Shape-10" d="M512.4 657.37H248.3V459.29a11 11 0 0 1 11-11h242.1a11 11 0 0 1 11 11z" class="cls-9" data-name="Shape"/><g id="Group-2" data-name="Group"><path id="Shape-11" fill="#1a78ca" d="M292.31 448.28h-33a11 11 0 0 0-11 11v198.09h33V459.29a11 11 0 0 1 11-11.01z" data-name="Shape"/><circle id="Oval-4" cx="380.35" cy="602.35" r="23.53" class="cls-9" data-name="Oval"/></g><path id="Shape-12" d="M248.3 657.37H61.22a11 11 0 0 1-11-11v-33H248.3v44z" class="cls-9" data-name="Shape"/><path id="Shape-13" d="M501.4 438h-66.72v-79.13a10.32 10.32 0 1 0-20.63 0v24.07H312.83c16.93-24.62 44.82-72.65 44.82-121.74 0-29.06-13.48-56.74-37.95-77.95-23-20-53.07-31.41-82.41-31.41s-59.38 11.45-82.41 31.41c-24.47 21.21-37.95 48.89-37.95 77.95 0 49.09 27.89 97.11 44.82 121.74H60.53V217.19C60.53 98 155.41 41.74 237.29 29.54 319.17 41.74 414.05 98 414.05 217.19v90.33a10.32 10.32 0 1 0 20.63 0v-90.33c0-61.58-23.61-114.24-68.28-152.29-33.85-28.83-80.4-49.25-127.65-56a10.26 10.26 0 0 0-2.92 0c-47.27 6.75-93.8 27.17-127.66 56C63.51 103 39.9 155.61 39.9 217.19v306.06h-2.07A31 31 0 0 0 6.89 554.2v38.52a31 31 0 0 0 30.95 30.95h2.06v33.7a10.32 10.32 0 0 0 10.32 10.32h99.5a10.32 10.32 0 0 0 0-20.63h-88.5a.69.69 0 0 1-.69-.69v-22.7H238v23.38h-33.26a10.32 10.32 0 1 0 0 20.63H512.4a10.32 10.32 0 0 0 10.32-10.32V459.29A21.35 21.35 0 0 0 501.4 438zm-87.35-34.39V438H302.63v-34.42zm-231.78 55a11.69 11.69 0 1 1-11.69 11.69 11.71 11.71 0 0 1 11.69-11.7zm5-75.66c-2.24-2.93-5.63-7.5-9.59-13.37a154.1 154.1 0 0 0 119.19 0c-4 5.86-7.33 10.43-9.57 13.36zm-49.71-121.74v-.69H216v16a29.38 29.38 0 0 1-29.35 29.35h-41.19c-4.75-14.32-7.9-29.54-7.9-44.66zm199.46 0c0 15.1-3.15 30.33-7.91 44.71H288a29.38 29.38 0 0 1-29.35-29.35v-16H337v.64zm-99.73-88.72c40.21 0 84.45 27.69 96.52 67.4H248.3A10.32 10.32 0 0 0 238 250.2v26.36a50 50 0 0 0 50 50h33q-1.68 3.73-3.43 7.31a132.66 132.66 0 0 1-160.68 0q-1.74-3.56-3.41-7.27h33.11a50 50 0 0 0 50-50v-26.4a10.32 10.32 0 0 0-10.32-10.32h-85.5c12.07-39.71 56.31-67.39 96.52-67.39zM27.52 592.72V554.2a10.33 10.33 0 0 1 10.32-10.32h77a10.33 10.33 0 0 1 10.32 10.32v38.52a10.32 10.32 0 0 1-9.6 10.28v-22.66a10.32 10.32 0 0 0-20.63 0V603H88v-22.7a10.32 10.32 0 0 0-20.63 0V603h-6.84v-22.7a10.32 10.32 0 0 0-20.63 0V603h-2.06a10.33 10.33 0 0 1-10.32-10.28zM144 603a30.8 30.8 0 0 0 1.77-10.32V554.2a31 31 0 0 0-30.95-30.95H60.53V403.58H172v36.09a32.33 32.33 0 1 0 20.63 0v-36.09H282V438h-22.7a21.34 21.34 0 0 0-21.3 21.29V603h-94zm358 44H258.61V459.29a.69.69 0 0 1 .69-.69h242.1a.69.69 0 0 1 .69.69z" data-name="Shape"/><path id="Shape-14" d="M380.35 570a32.33 32.33 0 1 0 32.33 32.33A32.36 32.36 0 0 0 380.35 570zm0 44A11.69 11.69 0 1 1 392 602.35 11.71 11.71 0 0 1 380.35 614z" data-name="Shape"/><path id="Shape-15" d="M380.35 471a130.5 130.5 0 0 0-92.89 38.48A10.32 10.32 0 0 0 302.05 524a110.73 110.73 0 0 1 156.6 0 10.32 10.32 0 0 0 14.59-14.59A130.51 130.51 0 0 0 380.35 471z" data-name="Shape"/><path id="Shape-16" d="M380.35 504a97.7 97.7 0 0 0-69.55 28.8 10.32 10.32 0 1 0 14.59 14.59 77.72 77.72 0 0 1 109.91 0 10.32 10.32 0 1 0 14.59-14.59 97.71 97.71 0 0 0-69.54-28.8z" data-name="Shape"/><path id="Shape-17" d="M380.35 537a64.91 64.91 0 0 0-46.2 19.14 10.32 10.32 0 0 0 14.59 14.59 44.7 44.7 0 0 1 63.22 0 10.32 10.32 0 1 0 14.59-14.59 64.89 64.89 0 0 0-46.2-19.14z" data-name="Shape"/></g></g></g></svg>
