<svg xmlns="http://www.w3.org/2000/svg" xmlns:xlink="http://www.w3.org/1999/xlink" id="Capa_1" data-name="Capa 1" viewBox="0 0 518.5 502.73"><defs><style>.cls-1{fill:#1a1a1a}.cls-2{fill:#8b572a}.cls-9{fill:#ff2433}.cls-10{fill:#e31e36}.cls-11{opacity:.1;isolation:isolate}</style><linearGradient id="linear-gradient" x1="219.27" x2="229.71" y1="2220.85" y2="2204.78" gradientTransform="matrix(3.58 0 0 -2.68 -336.7 6318.13)" gradientUnits="userSpaceOnUse"><stop offset="0" stop-opacity=".1"/><stop offset="1" stop-opacity="0"/></linearGradient><linearGradient id="linear-gradient-2" x1="200.37" x2="215.16" y1="2129.21" y2="2114.34" gradientTransform="matrix(4.47 0 0 -4.47 -464.52 9905.25)" xlink:href="#linear-gradient"/><linearGradient id="linear-gradient-3" x1="142.48" x2="157.02" y1="2039.73" y2="2032.95" gradientTransform="matrix(22.37 0 0 -17 -3019.07 34978.5)" gradientUnits="userSpaceOnUse"><stop offset="0" stop-color="#fff" stop-opacity=".2"/><stop offset="1" stop-color="#fff" stop-opacity="0"/></linearGradient><linearGradient id="linear-gradient-4" x1="-4.77" x2="569.3" y1="444.68" y2="177.02" gradientTransform="rotate(-14.18 -125.085 939.706)" xlink:href="#linear-gradient-3"/></defs><g id="Symbols"><g id="nav_wallet" data-name="nav wallet"><g id="Group"><path id="Shape" d="M496.5 315.46v-62a30.14 30.14 0 0 0-29.91-30.31H182.48a30.14 30.14 0 0 0-29.91 30.31v212.13a30.14 30.14 0 0 0 29.91 30.3h284.11a30.14 30.14 0 0 0 29.91-30.31v-62a22.67 22.67 0 0 0 15-21.33V336.8a22.67 22.67 0 0 0-15-21.34z" class="cls-1"/><path id="Shape-2" d="M467.7 480.52H182a15.17 15.17 0 0 1-15-15.25V251.74a15.17 15.17 0 0 1 15-15.25h285.7a15.17 15.17 0 0 1 15 15.25v66h-35.07c-24.88 0-35.12 15.52-35.12 40.76s10.24 41.76 35.12 41.76h35.12v65a15.17 15.17 0 0 1-15.05 15.26z" class="cls-2" data-name="Shape"/><path id="Shape-3" d="M497.1 381.06c0 4-2.74 7.18-6.12 7.18h-42.86c-13.51 0-24.49-12.88-24.49-28.71s11-28.71 24.49-28.71H491c3.38 0 6.12 3.22 6.12 7.18z" class="cls-2" data-name="Shape"/><path id="Shape-4" fill="url(#linear-gradient)" d="M455.26 388.43h40.23l-37.32-43.06-20.1 23.23 17.19 19.83z" data-name="Shape"/><circle id="Oval" cx="451.68" cy="359.53" r="16.04" class="cls-1"/><path id="Shape-5" fill="url(#linear-gradient-2)" d="M482.32 462.17a16.53 16.53 0 0 0 .42-2.46v-60.34h-38.38a34.43 34.43 0 0 1-22.71-9h-.21z" data-name="Shape"/><path id="Shape-6" fill="url(#linear-gradient-3)" d="M496.5 314.44v-62a30.14 30.14 0 0 0-29.91-30.31H182.48a30.14 30.14 0 0 0-29.91 30.31v212.13a30.14 30.14 0 0 0 29.91 30.3h284.11a30.14 30.14 0 0 0 29.91-30.31v-62a22.67 22.67 0 0 0 15-21.33v-45.46a22.67 22.67 0 0 0-15-21.33z" data-name="Shape"/><path id="Shape-7" d="M179.56 10.76a128.5 128.5 0 0 0-93 155.88 126.58 126.58 0 0 0 9 24.31l-12.2 10.45a8 8 0 0 0 1.13 13l12.6 7.52-5.81 9.74-12.34 3.12a8 8 0 0 0-5.81 9.74l3.12 12.34L68 270.6l-12.33 3.12a8 8 0 0 0-5.81 9.74L53 295.79l-8.22 13.78-12.34 3.12a8 8 0 0 0-5.81 9.74l3.12 12.34-21.57 36.11a8 8 0 0 0-.89 6.12L23 439.17a8 8 0 0 0 9.75 5.83L95 429.27a8 8 0 0 0 4.92-3.67l88.9-149 12.6 7.52a8 8 0 0 0 11.92-5.12l3.44-15.66c83.3-3.49 138.05-82.75 118.66-159.54a128.5 128.5 0 0 0-155.88-93.04zm52.54 105.06A25.35 25.35 0 1 1 250.47 85a25.38 25.38 0 0 1-18.37 30.82z" class="cls-1" data-name="Shape"/><path id="Shape-8" fill="#ffce00" d="M183.73 23.88a113.35 113.35 0 0 0-71.83 164.86 8.13 8.13 0 0 1-1.83 10l-8.61 7.42 10.05 6a8.12 8.12 0 0 1 2.81 11.14l-11.78 19.74a8.12 8.12 0 0 1-5 3.72l-7.88 2 2 7.88a8.12 8.12 0 0 1-.9 6.15L79 282.56a8.12 8.12 0 0 1-5 3.72l-7.88 2 2 7.88a8.12 8.12 0 0 1-.9 6.15L55.44 322a8.12 8.12 0 0 1-5 3.72l-7.88 2 2 7.88a8.12 8.12 0 0 1-.9 6.15l-21.83 36.61 13.11 51.89 51.89-13.11 92.49-155a8.12 8.12 0 0 1 11.14-2.81l10.05 6 2.44-11.1a8.16 8.16 0 0 1 8-6.38c77.52.36 128.6-71.71 111-141.51a113.89 113.89 0 0 0-138.22-82.46zm52 106.25a40.11 40.11 0 1 1 29.07-48.71 40.16 40.16 0 0 1-29.08 48.71z" data-name="Shape"/><path id="Shape-9" fill="#ffa21a" d="M300.73 65.25a112 112 0 0 1 7.85 21.54c17.49 69.21-33.71 140.85-111.19 140.64a8.18 8.18 0 0 0-8 6.35l-2.46 11-10-5.93a8.17 8.17 0 0 0-11.14 2.81L73 395.69 29 406.8l5.92 23.44 51.89-13.11 92.75-154a8.17 8.17 0 0 1 11.14-2.81l10 5.93 2.46-11a8.18 8.18 0 0 1 8-6.35c77.48.21 128.68-71.41 111.19-140.64a111.23 111.23 0 0 0-21.62-43.01z" data-name="Shape" opacity=".39"/><path id="Shape-10" fill="url(#linear-gradient-4)" d="M179.56 10.76a128.5 128.5 0 0 0-93 155.88 126.58 126.58 0 0 0 9 24.31l-12.2 10.45a8 8 0 0 0 1.13 13l12.6 7.52-5.81 9.74-12.34 3.12a8 8 0 0 0-5.81 9.74l3.12 12.34L68 270.6l-12.33 3.12a8 8 0 0 0-5.81 9.74L53 295.79l-8.22 13.78-12.34 3.12a8 8 0 0 0-5.81 9.74l3.12 12.34-21.57 36.11a8 8 0 0 0-.89 6.12L23 439.17a8 8 0 0 0 9.75 5.83L95 429.27a8 8 0 0 0 4.92-3.67l88.9-149 12.6 7.52a8 8 0 0 0 11.92-5.12l3.44-15.66c83.3-3.49 138.05-82.75 118.66-159.54a128.5 128.5 0 0 0-155.88-93.04zM232 115.56a25.07 25.07 0 1 1 18.2-30.45 25.1 25.1 0 0 1-18.2 30.45z" data-name="Shape"/></g></g></g><path d="M377.21 302.81L321.13 283a3.3 3.3 0 0 0-2.2 0l-56.07 19.79a3.3 3.3 0 0 0-2.2 3.11v39.6c0 51.22 7.6 69.94 57.89 95.3a3.29 3.29 0 0 0 3 0c50.29-25.36 57.89-44.08 57.89-95.3v-39.58a3.3 3.3 0 0 0-2.23-3.11z"/><path d="M320 291.84l-49.5 16.42-1.42 37.25c0 6 .09 11.43.33 16.49H320z" class="cls-9"/><path d="M372.47 362c.25-5.06.34-10.52.34-16.49l-1.48-37.25L320 291.1V362z" class="cls-10"/><path d="M320 360.52v70.69c40.86-20.83 50.65-34.16 52.43-70.69z" class="cls-9"/><path d="M269.08 360.52c1.78 36.53 10.1 49.86 51 70.69v-70.69z" class="cls-10"/><path d="M320 419.89c-46.52-23.72-52.78-33-52.78-82.06V344c0 49.06 6.26 64.94 52.78 88.66 46.52-23.72 52.78-39.6 52.78-88.66v-6.2c.03 49.09-6.22 58.38-52.78 82.09z" class="cls-11"/><path d="M300.24 342.2a19.74 19.74 0 0 0 7.16 15.22l-3.83 27.2a3.3 3.3 0 0 0 3.27 3.76h26.39a3.3 3.3 0 0 0 3.27-3.76l-3.83-27.2a19.79 19.79 0 1 0-32.42-15.22z"/><path fill="#f2f2f4" style="isolation:isolate" d="M333.23 342.2a13.19 13.19 0 0 1-5.92 11 3.31 3.31 0 0 0-1.44 3.21l3.57 25.38h-18.8l3.57-25.38a3.31 3.31 0 0 0-1.44-3.21 13.19 13.19 0 1 1 20.47-11z"/><path d="M317 381.79l3.28-23.31a3.31 3.31 0 0 0-1.44-3.21 13.19 13.19 0 0 1 7.27-24.19c.41 0 .79.08 1.19.12a13.18 13.18 0 0 0-14.51 22 3.31 3.31 0 0 1 1.44 3.21l-3.57 25.38z" class="cls-11"/></svg>
