<svg xmlns="http://www.w3.org/2000/svg" id="Capa_1" data-name="Capa 1" viewBox="0 0 674.17 564.11"><defs><style>.cls-2{isolation:isolate;fill:#f9f9f9}.cls-10{stroke:#000;stroke-miterlimit:10}.cls-4{fill:#fff}.cls-5{fill:#193651}.cls-9{fill:#ffce00}.cls-10{fill:none;stroke-width:9px}.cls-11{fill:#1a1a1a}</style><linearGradient id="linear-gradient" x1="511.07" x2="-103.62" y1="-110.01" y2="834.76" gradientUnits="userSpaceOnUse"><stop offset="0" stop-color="#1aa59c"/><stop offset="1" stop-color="#005daf"/></linearGradient></defs><path fill="#dfdfe3" d="M331.58 547.75h-131.2l12.8-60h105.6l12.8 60z" style="isolation:isolate"/><path d="M17.98 107.75h496v380h-496z" class="cls-2"/><path fill="url(#linear-gradient)" stroke="#000" stroke-miterlimit="10" stroke-width="12" d="M25.98 115.75h480v301.86h-480z"/><circle cx="265.98" cy="448.55" r="13.6"/><path d="M95.58 120.55h340v238.87h-340z" class="cls-4"/><path d="M522 495.75v-396H10v396h193.6l-9.6 44h-16v16h176v-16h-16l-9.6-44zm-312 44l9.6-44h92.8l9.6 44zm-184-424h61.6v255h356v-255H506v364H26z"/><path d="M192.38 440.55h16v16h-16zM323.58 440.55h16v16h-16z"/><path d="M150.78 166.95h156.8v16h-156.8zM332.38 166.95h48.8v16h-48.8zM211.58 223.75h169.6v16h-169.6zM150.78 223.75h35.2v16h-35.2z" class="cls-5"/><path fill="#81cc3b" d="M90.05 70.64h351.07v294.45H90.05z"/><path d="M118.36 98.95h294.45v237.82H118.36zM90.05 14.02h351.07v56.62H90.05z" class="cls-2"/><path d="M84.38 8.35v362.4h362.4V8.35zm351.08 351.08H95.71V76.3h339.75zM95.71 65V19.68h339.75V65z"/><path d="M118.36 36.67h11.32v11.32h-11.32zM151.77 36.67h11.32v11.32h-11.32zM185.18 36.67h11.32v11.32h-11.32z"/><path fill="#ff2434" d="M342.33 279.81a32.09 32.09 0 0 1 15.22 33.82 34.33 34.33 0 0 0 7.31-8.62A32.47 32.47 0 1 0 309 271.9a34.33 34.33 0 0 0-4 10.55 33.19 33.19 0 0 1 37.33-2.64z"/><path fill="#00aeef" d="M346.94 298.52c23.15-11.63 33.5-37.45 23.44-64.63-28.88 4.11-46.38 25.69-45.66 51.46z"/><path d="M329.2 288c-5 5.6-6.72 13.65-3.91 21.93 8.61-1.51 14.84-6.91 17.36-14z" class="cls-9"/><circle cx="357.32" cy="255.91" r="7.58" class="cls-4" transform="rotate(-59.34 357.333 255.907)"/><path d="M151.78 169.45h121.6v70.54h-121.6zM212.58 123.75h169.6v19.87h-169.6zM151.78 123.75h35.2v19.87h-35.2z" class="cls-10"/><g id="Symbols"><g id="icon_coins--piggy" data-name="icon coins--piggy"><g id="piggy-bank"><path id="Shape" d="M653.22 417.38a35.15 35.15 0 0 1-6.93-.69 70.65 70.65 0 0 0 1.61-15.28 16 16 0 0 0-31.94 0c0 8.75 7 17 17 21.94a46.12 46.12 0 0 1-5.26 9.14c-13-21.5-38.26-37.89-69.1-44.18a37.26 37.26 0 0 0 11-13.67 37.2 37.2 0 1 0-35.16-52.9 37 37 0 0 0-22.73 65c-17.85 2.44-34.64 8.27-48.76 17.06a37 37 0 0 0-22.65-7.72 5.32 5.32 0 0 0-5.32 5.32 36.92 36.92 0 0 0 6.4 20.67 70.67 70.67 0 0 0-14.8 27.23h-2.25A21.31 21.31 0 0 0 403 470.61a33.91 33.91 0 0 0 16.06 28.93l37.17 23.16v27.75a5.32 5.32 0 0 0 5.32 5.32h21.29a5.33 5.33 0 0 0 4.76-2.94l6.3-12.6a141.72 141.72 0 0 0 73.69 0l6.3 12.6a5.33 5.33 0 0 0 4.76 2.94H600a5.32 5.32 0 0 0 5.32-5.32v-28.18c20.34-15 31.94-35.59 31.94-57a61.29 61.29 0 0 0-4.32-22.27 56.22 56.22 0 0 0 10.14-16.07 46.06 46.06 0 0 0 10.14 1.07 5.32 5.32 0 1 0 0-10.65zm-17-4.41c-5.92-3.36-9.57-8-9.57-11.56a5.32 5.32 0 0 1 10.65 0 60.48 60.48 0 0 1-1.12 11.59z" class="cls-11"/><circle id="Oval" cx="568.05" cy="337.54" r="26.61" class="cls-9"/><path id="Shape-2" fill="#ffca28" d="M509.5 358.83a26.55 26.55 0 0 1 21.77-26.06 36.61 36.61 0 0 0-.48 4.76 37.13 37.13 0 0 0 .88 7.89 5.18 5.18 0 0 0-.88 2.76v21.29a5.32 5.32 0 0 0 10.65 0v-5.94a37.18 37.18 0 0 0 16.77 9.78 26.46 26.46 0 0 1-48.71-14.48z" data-name="Shape"/><path id="Shape-3" d="M509.5 358.83a26.55 26.55 0 0 1 21.77-26.06 36.61 36.61 0 0 0-.48 4.76 37.13 37.13 0 0 0 .88 7.89 5.18 5.18 0 0 0-.88 2.76v21.29a5.32 5.32 0 0 0 10.65 0v-5.94a37.18 37.18 0 0 0 16.77 9.78 26.46 26.46 0 0 1-48.71-14.48z" class="cls-9" data-name="Shape"/><path id="Shape-4" fill="#ffa21a" d="M541.44 363.53v5.94a5.32 5.32 0 0 1-10.65 0v-21.29a5.18 5.18 0 0 1 .88-2.76 37.17 37.17 0 0 1-.88-7.89 36.6 36.6 0 0 1 .48-4.76 26.89 26.89 0 0 0-9 3.47 36.77 36.77 0 0 0-2.14 11.94 37.54 37.54 0 0 0 25.75 35.34 26.48 26.48 0 0 0 12.31-10.21 37.19 37.19 0 0 1-16.75-9.78z" data-name="Shape" opacity=".39"/><path id="Shape-5" fill="#303c42" d="M568.05 353.5a5.32 5.32 0 0 0 5.32-5.32v-21.29a5.32 5.32 0 1 0-10.65 0v21.29a5.32 5.32 0 0 0 5.33 5.32z" data-name="Shape"/><path id="SVGCleanerId_0" fill="#fdd1b0" d="M597 515.15a5.33 5.33 0 0 0-2.29 4.38v25.6H582l-6.83-13.65a5.3 5.3 0 0 0-6.36-2.7 130.3 130.3 0 0 1-76 0 5.32 5.32 0 0 0-6.36 2.7l-6.83 13.65h-12.7v-25.38a5.32 5.32 0 0 0-2.51-4.52l-39.68-24.72a23.31 23.31 0 0 1-11-19.9A10.66 10.66 0 0 1 424.34 460h6.47a5.32 5.32 0 0 0 5.22-4.3c2-10.48 7.62-20.72 16.13-29.61a5.32 5.32 0 0 0 .16-7.19 26.62 26.62 0 0 1-6-11.43 26.57 26.57 0 0 1 12.47 6.85 5.3 5.3 0 0 0 6.7.58c17.84-12.1 41-18.77 65.3-18.77 52.83 0 95.81 31 95.81 69.2.01 18.87-10.52 36.58-29.6 49.82z" data-name="SVGCleanerId 0"/><path id="SVGCleanerId_0-2" fill="#fdcab4" d="M597 515.15a5.33 5.33 0 0 0-2.29 4.38v25.6H582l-6.83-13.65a5.3 5.3 0 0 0-6.36-2.7 130.3 130.3 0 0 1-76 0 5.32 5.32 0 0 0-6.36 2.7l-6.83 13.65h-12.7v-25.38a5.32 5.32 0 0 0-2.51-4.52l-39.68-24.72a23.31 23.31 0 0 1-11-19.9A10.66 10.66 0 0 1 424.34 460h6.47a5.32 5.32 0 0 0 5.22-4.3c2-10.48 7.62-20.72 16.13-29.61a5.32 5.32 0 0 0 .16-7.19 26.62 26.62 0 0 1-6-11.43 26.57 26.57 0 0 1 12.47 6.85 5.3 5.3 0 0 0 6.7.58c17.84-12.1 41-18.77 65.3-18.77 52.83 0 95.81 31 95.81 69.2.01 18.87-10.52 36.58-29.6 49.82z" data-name="SVGCleanerId 0"/><path id="Shape-6" d="M456.27 438.67a10.65 10.65 0 1 0 10.65 10.65 10.66 10.66 0 0 0-10.65-10.65z" class="cls-11" data-name="Shape"/><path style="isolation:isolate" id="Shape-7" fill="#fff" d="M452.16 426c-1 1.07-1.87 2.22-2.81 3.33 20.48-10.77 47-17.32 76.12-17.32 39.61 0 74.56 12.1 95.75 30.57-13-27-48.6-46.54-90.43-46.54-24.27 0-47.46 6.66-65.3 18.77a5.3 5.3 0 0 1-6.7-.58 26.57 26.57 0 0 0-12.47-6.85 26.62 26.62 0 0 0 6 11.43 5.32 5.32 0 0 1-.16 7.19z" data-name="Shape" opacity=".2"/><path style="isolation:isolate" id="Shape-8" d="M522.81 518.51c-28.78 0-55.21-5.43-76.34-14.47l17.95 11.18a5.32 5.32 0 0 1 2.51 4.52v25.38h12.67l6.83-13.65a5.32 5.32 0 0 1 6.36-2.7 130.3 130.3 0 0 0 76 0 5.3 5.3 0 0 1 6.36 2.7l6.85 13.66h12.68v-25.6a5.33 5.33 0 0 1 2.29-4.38 75.63 75.63 0 0 0 20.58-20.73c-22.95 14.73-56.84 24.09-94.74 24.09z" data-name="Shape" opacity=".1"/><path id="Shape-9" d="M569.71 412.32c-22.28-7.31-55.56-7.31-77.84 0a5.32 5.32 0 1 0 3.32 10.12c20.17-6.62 51-6.62 71.2 0a5.26 5.26 0 0 0 1.66.26 5.32 5.32 0 0 0 1.66-10.38z" class="cls-11" data-name="Shape"/></g></g></g></svg>
